<svg width="136" height="25" viewBox="0 0 136 25" fill="none" xmlns="http://www.w3.org/2000/svg">
<path d="M33.3 20.707C33.1343 20.707 33 20.5727 33 20.407V3.94453C33 3.77884 33.1343 3.64453 33.3 3.64453H38.25C39.75 3.64453 41.0898 3.98438 42.2695 4.66406C43.457 5.33594 44.3828 6.29688 45.0469 7.54688C45.7109 8.78906 46.043 10.2031 46.043 11.7891V12.5742C46.043 14.1602 45.7148 15.5703 45.0586 16.8047C44.4102 18.0391 43.4922 18.9961 42.3047 19.6758C41.1172 20.3555 39.7773 20.6992 38.2852 20.707H33.3ZM36.8156 6.49219C36.6499 6.49219 36.5156 6.6265 36.5156 6.79219V17.5828C36.5156 17.7485 36.6499 17.8828 36.8156 17.8828H38.2148C39.5898 17.8828 40.6406 17.4336 41.3672 16.5352C42.0938 15.6367 42.4648 14.3516 42.4805 12.6797V11.7773C42.4805 10.043 42.1211 8.73047 41.4023 7.83984C40.6836 6.94141 39.6328 6.49219 38.25 6.49219H36.8156Z" fill="#026E78"/>
<path d="M54.2227 20.9414C52.3633 20.9414 50.8477 20.3711 49.6758 19.2305C48.5117 18.0898 47.9297 16.5703 47.9297 14.6719V14.3438C47.9297 13.0703 48.1758 11.9336 48.668 10.9336C49.1602 9.92578 49.8555 9.15234 50.7539 8.61328C51.6602 8.06641 52.6914 7.79297 53.8477 7.79297C55.582 7.79297 56.9453 8.33984 57.9375 9.43359C58.9375 10.5273 59.4375 12.0781 59.4375 14.0859V15.1687C59.4375 15.3344 59.3032 15.4688 59.1375 15.4688H51.7055C51.5242 15.4688 51.3833 15.6288 51.4219 15.8059C51.5685 16.4791 51.8771 17.0307 52.3477 17.4609C52.9023 17.9609 53.6016 18.2109 54.4453 18.2109C55.6171 18.2109 56.5589 17.8297 57.2706 17.0671C57.3985 16.9302 57.6189 16.9217 57.7437 17.0615L59.009 18.4782C59.102 18.5824 59.1116 18.7377 59.0255 18.8477C58.5341 19.4756 57.8941 19.9743 57.1055 20.3438C56.2383 20.7422 55.2773 20.9414 54.2227 20.9414ZM53.8359 10.5352C53.1641 10.5352 52.6172 10.7617 52.1953 11.2148C51.8387 11.6051 51.5922 12.1403 51.4558 12.8203C51.42 12.9989 51.5609 13.1602 51.743 13.1602H55.8398C55.9887 13.1602 56.1094 13.0395 56.1094 12.8906C56.0938 12.1406 55.8906 11.5625 55.5 11.1562C55.1094 10.7422 54.5547 10.5352 53.8359 10.5352Z" fill="#026E78"/>
<path d="M68.2383 17.2031C68.2383 16.7891 68.0312 16.4648 67.6172 16.2305C67.2109 15.9883 66.5547 15.7734 65.6484 15.5859C62.6328 14.9531 61.125 13.6719 61.125 11.7422C61.125 10.6172 61.5898 9.67969 62.5195 8.92969C63.457 8.17188 64.6797 7.79297 66.1875 7.79297C67.7969 7.79297 69.082 8.17188 70.043 8.92969C70.9305 9.62394 71.4114 10.5084 71.4859 11.5829C71.4973 11.7482 71.3618 11.8828 71.1961 11.8828H68.4094C68.2437 11.8828 68.1124 11.7477 68.0879 11.5838C68.0354 11.2319 67.8863 10.9332 67.6406 10.6875C67.3281 10.3672 66.8398 10.207 66.1758 10.207C65.6055 10.207 65.1641 10.3359 64.8516 10.5938C64.5391 10.8516 64.3828 11.1797 64.3828 11.5781C64.3828 11.9531 64.5586 12.2578 64.9102 12.4922C65.2695 12.7188 65.8711 12.918 66.7148 13.0898C67.5586 13.2539 68.2695 13.4414 68.8477 13.6523C70.6367 14.3086 71.5312 15.4453 71.5312 17.0625C71.5312 18.2188 71.0352 19.1562 70.043 19.875C69.0508 20.5859 67.7695 20.9414 66.1992 20.9414C65.1367 20.9414 64.1914 20.7539 63.3633 20.3789C62.543 19.9961 61.8984 19.4766 61.4297 18.8203C61.0226 18.2437 60.7923 17.6287 60.7387 16.9755C60.7252 16.8103 60.8609 16.6758 61.0266 16.6758H63.6527C63.8123 16.6758 63.9415 16.8014 63.9681 16.9589C64.0465 17.4239 64.2589 17.7905 64.6055 18.0586C65.0195 18.3789 65.5742 18.5391 66.2695 18.5391C66.918 18.5391 67.4062 18.418 67.7344 18.1758C68.0703 17.9258 68.2383 17.6016 68.2383 17.2031Z" fill="#026E78"/>
<path d="M77.4773 4.91016C77.643 4.91016 77.7773 5.04447 77.7773 5.21016V7.72734C77.7773 7.89303 77.9117 8.02734 78.0773 8.02734H79.6453C79.811 8.02734 79.9453 8.16166 79.9453 8.32734V10.2117C79.9453 10.3774 79.811 10.5117 79.6453 10.5117H78.0773C77.9117 10.5117 77.7773 10.646 77.7773 10.8117V16.8398C77.7773 17.3086 77.8672 17.6445 78.0469 17.8477C78.2266 18.0508 78.5703 18.1523 79.0781 18.1523C79.3067 18.1523 79.5193 18.1422 79.716 18.1219C79.903 18.1025 80.0742 18.2444 80.0742 18.4324V20.4148C80.0742 20.5466 79.9882 20.6637 79.861 20.6983C79.264 20.8604 78.6515 20.9414 78.0234 20.9414C75.6484 20.9414 74.4375 19.7422 74.3906 17.3438V10.8117C74.3906 10.646 74.2563 10.5117 74.0906 10.5117H72.8391C72.6734 10.5117 72.5391 10.3774 72.5391 10.2117V8.32734C72.5391 8.16166 72.6734 8.02734 72.8391 8.02734H74.0906C74.2563 8.02734 74.3906 7.89303 74.3906 7.72734V5.21016C74.3906 5.04447 74.5249 4.91016 74.6906 4.91016H77.4773Z" fill="#026E78"/>
<path d="M85.4062 20.407C85.4062 20.5727 85.2719 20.707 85.1063 20.707H82.3078C82.1421 20.707 82.0078 20.5727 82.0078 20.407V8.32734C82.0078 8.16166 82.1421 8.02734 82.3078 8.02734H85.1063C85.2719 8.02734 85.4062 8.16166 85.4062 8.32734V20.407ZM81.8086 4.74609C81.8086 4.23828 81.9766 3.82031 82.3125 3.49219C82.6562 3.16406 83.1211 3 83.707 3C84.2852 3 84.7461 3.16406 85.0898 3.49219C85.4336 3.82031 85.6055 4.23828 85.6055 4.74609C85.6055 5.26172 85.4297 5.68359 85.0781 6.01172C84.7344 6.33984 84.2773 6.50391 83.707 6.50391C83.1367 6.50391 82.6758 6.33984 82.3242 6.01172C81.9805 5.68359 81.8086 5.26172 81.8086 4.74609Z" fill="#026E78"/>
<path d="M102.875 20.407C102.875 20.5727 102.741 20.707 102.575 20.707H99.5278C99.4232 20.707 99.3261 20.6525 99.2717 20.5632L93.0718 10.3928C92.914 10.1339 92.5156 10.2458 92.5156 10.5489V20.407C92.5156 20.5727 92.3813 20.707 92.2156 20.707H89.3C89.1343 20.707 89 20.5727 89 20.407V3.94453C89 3.77884 89.1343 3.64453 89.3 3.64453H92.3471C92.4518 3.64453 92.5489 3.69906 92.6033 3.78842L98.8149 13.9818C98.9727 14.2407 99.3711 14.1289 99.3711 13.8257V3.94453C99.3711 3.77885 99.5054 3.64453 99.6711 3.64453H102.575C102.741 3.64453 102.875 3.77885 102.875 3.94453V20.407Z" fill="#00A9BA"/>
<path d="M105.195 14.25C105.195 12.9922 105.438 11.8711 105.922 10.8867C106.406 9.90234 107.102 9.14062 108.008 8.60156C108.922 8.0625 109.98 7.79297 111.184 7.79297C112.895 7.79297 114.289 8.31641 115.367 9.36328C116.453 10.4102 117.059 11.832 117.184 13.6289L117.207 14.4961C117.207 16.4414 116.664 18.0039 115.578 19.1836C114.492 20.3555 113.035 20.9414 111.207 20.9414C109.379 20.9414 107.918 20.3555 106.824 19.1836C105.738 18.0117 105.195 16.418 105.195 14.4023V14.25ZM108.582 14.4961C108.582 15.6992 108.809 16.6211 109.262 17.2617C109.715 17.8945 110.363 18.2109 111.207 18.2109C112.027 18.2109 112.668 17.8984 113.129 17.2734C113.59 16.6406 113.82 15.6328 113.82 14.25C113.82 13.0703 113.59 12.1562 113.129 11.5078C112.668 10.8594 112.02 10.5352 111.184 10.5352C110.355 10.5352 109.715 10.8594 109.262 11.5078C108.809 12.1484 108.582 13.1445 108.582 14.4961Z" fill="#00A9BA"/>
<path d="M129.985 14.9273C130.071 15.2289 130.504 15.2126 130.567 14.9054L131.935 8.26679C131.964 8.12737 132.087 8.02734 132.229 8.02734H134.868C135.064 8.02734 135.207 8.2118 135.158 8.40149L132.077 20.4812C132.043 20.6141 131.924 20.707 131.786 20.707H129.407C129.274 20.707 129.157 20.6203 129.119 20.4935L127.069 13.6808C126.983 13.3961 126.58 13.3961 126.494 13.6808L124.443 20.4935C124.405 20.6203 124.288 20.707 124.156 20.707H121.788C121.651 20.707 121.531 20.6141 121.497 20.4812L118.416 8.40149C118.367 8.21181 118.511 8.02734 118.706 8.02734H121.345C121.488 8.02734 121.61 8.12754 121.639 8.26711L122.997 14.895C123.06 15.2022 123.493 15.2191 123.58 14.9177L125.5 8.24437C125.537 8.11586 125.655 8.02734 125.788 8.02734H127.785C127.919 8.02734 128.037 8.11611 128.074 8.24487L129.985 14.9273Z" fill="#00A9BA"/>
<path d="M9.70041 24.6841L17.3378 17.0467C19.9296 14.4549 19.9296 10.2537 17.3378 7.66196L21.3396 3.66016C26.2212 8.54178 26.2212 16.4573 21.3396 21.3389C18.1808 24.497 13.7542 25.6116 9.70041 24.6841Z" fill="#026E78"/>
<path d="M15.0819 9.9388C13.6675 8.51288 11.3647 8.50349 9.93876 9.91785C8.51285 11.3322 8.50346 13.635 9.91782 15.061C11.3322 16.4869 13.635 16.4963 15.0609 15.0819C16.4868 13.6676 16.4962 11.3647 15.0819 9.9388Z" fill="#00A9BA"/>
<path d="M17.046 7.66267C15.6974 6.31405 13.9132 5.66755 12.1463 5.72245C11.3683 5.74701 10.6113 5.46746 10.0609 4.91703L9.99083 4.84696C8.2543 3.11044 9.40067 0.143037 11.853 0.0166267C15.264 -0.158904 18.7334 1.05536 21.3389 3.66087C24.497 6.81897 25.6109 11.2455 24.6834 15.2993L17.046 7.66267Z" fill="#00A9BA"/>
<path d="M7.66267 17.046L15.2993 24.6834C11.2455 25.6109 6.81825 24.4963 3.66087 21.3389C1.05536 18.7334 -0.158904 15.2639 0.0166267 11.853C0.143037 9.40065 3.11044 8.25501 4.84696 9.99081L4.91703 10.0609C5.46746 10.6113 5.74701 11.3683 5.72245 12.1463C5.66755 13.9132 6.31405 15.6981 7.66267 17.046Z" fill="#00A9BA"/>
</svg>
