<svg width="334" height="334" viewBox="0 0 334 334" fill="none" xmlns="http://www.w3.org/2000/svg">
<rect width="334" height="334" fill="white"/>
<path d="M17.8209 274.95H316.372C316.372 274.95 357.476 122.613 260.255 129.071C270.977 68.1586 230.229 40.9202 199.49 35.9037C168.751 30.8873 141.724 47.3443 130.579 70.6612C111.553 55.2544 79.3879 60.1256 59.3708 84.2023C39.3538 108.279 58.6575 145.17 58.6575 145.17C58.6575 145.17 20.05 154.298 40.7804 197.938C0.735107 207.178 7.73439 263.889 17.8209 274.95Z" fill="#C6E8E9"/>
<path d="M25.4919 270.819C25.4919 270.819 53.2521 264.809 67.4671 246.771C81.682 228.732 103 208.6 112.102 217.401C121.205 226.201 128.307 227.545 133.128 224.129C137.957 220.712 138.863 222.931 166.236 208.798C193.609 194.665 205.74 186.031 205.74 186.031L222.568 202.747C222.568 202.747 229.916 190.665 231.736 192.665C233.451 194.559 289.054 257.092 314.653 272.733C315.569 273.293 315.21 274.901 314.136 274.901C211.376 274.901 16.3423 274.901 16.3423 274.901L25.4919 270.819Z" fill="#E3E1EE"/>
<path d="M16.3423 274.901H314.848C316.46 274.901 317.139 276.457 315.819 277.381C307.108 283.48 274.091 298.752 161.51 299.251C20.7284 299.876 16.3423 274.901 16.3423 274.901Z" fill="#E3E1EE"/>
<path d="M141.174 293.002C178.036 293.002 207.919 288.95 207.919 283.952C207.919 278.953 178.036 274.901 141.174 274.901C104.311 274.901 74.4283 278.953 74.4283 283.952C74.4283 288.95 104.311 293.002 141.174 293.002Z" fill="#E3E1EE"/>
<path d="M25.4919 270.818C25.4919 270.818 53.2521 264.809 67.4671 246.77C78.5976 232.658 94.0576 217.265 104.632 215.453C107.565 214.953 110.131 215.494 112.112 217.411C121.214 226.211 128.317 227.555 133.137 224.139C137.966 220.722 138.872 222.941 166.245 208.808C193.619 194.675 205.749 186.041 205.749 186.041L222.577 202.757C222.577 202.757 229.925 190.675 231.746 192.675C233.557 194.675 268.448 264.298 291.643 274.911C190.204 274.911 16.3423 274.911 16.3423 274.911L25.4919 270.818Z" fill="#F7F7FE"/>
<path d="M153.993 272.318C153.993 272.318 105.358 245.26 101.736 216.203C105.594 212.693 110.914 216.338 112.112 217.401C113.3 218.463 135.231 261.049 153.993 272.318Z" fill="#E3E1EE"/>
<path d="M205.749 186.031L222.577 202.747C222.577 202.747 235.377 243.761 252.62 256.29C233.557 247.021 208.579 198.945 205.749 186.031Z" fill="#E3E1EE"/>
<path d="M258.842 171.214C255.166 169.206 253.497 170.875 252.167 169.206C250.838 167.538 255.843 163.197 245.819 158.856C245.819 158.856 245.154 149.509 231.453 149.17C217.765 148.831 221.428 158.517 217.765 160.863C214.088 163.197 213.085 159.534 209.408 161.867C205.732 164.2 207.401 168.881 204.403 169.545C201.391 170.21 197.389 166.534 193.713 168.88C190.037 171.214 190.037 173.222 188.368 173.222C186.699 173.222 183.362 171.892 181.355 173.222C179.347 174.551 177.013 176.233 177.013 176.233H261.514C261.514 176.22 262.518 173.222 258.842 171.214Z" stroke="#302F38" stroke-width="0.610888" stroke-miterlimit="10" stroke-linecap="round" stroke-linejoin="round"/>
<path d="M208.848 169.845C208.457 170.08 207.961 170.301 207.362 170.549" stroke="#302F38" stroke-width="0.610888" stroke-miterlimit="10" stroke-linecap="round" stroke-linejoin="round"/>
<path d="M226.929 154.241C226.929 154.241 224.283 155.257 223.67 158.321C223.057 161.385 221.636 163.418 220.007 163.627C218.377 163.835 212.263 163.223 211.247 165.465C210.895 166.247 210.803 166.912 210.673 167.512" stroke="#302F38" stroke-width="0.610888" stroke-miterlimit="10" stroke-linecap="round" stroke-linejoin="round"/>
<rect x="131.81" y="76.4749" width="176.027" height="43.896" rx="7.75" fill="white" fill-opacity="0.7" stroke="#302F38" stroke-width="0.5"/>
<path d="M155.602 86.1488C156.164 85.0797 157.695 85.0797 158.257 86.1488L161.1 91.5541C161.317 91.967 161.714 92.2554 162.173 92.3343L168.192 93.3673C169.383 93.5716 169.856 95.0275 169.013 95.8926L164.751 100.266C164.425 100.6 164.273 101.067 164.34 101.529L165.218 107.572C165.392 108.768 164.153 109.668 163.07 109.133L157.593 106.431C157.175 106.224 156.684 106.224 156.266 106.431L150.789 109.133C149.706 109.668 148.467 108.768 148.641 107.572L149.519 101.529C149.586 101.067 149.434 100.6 149.108 100.266L144.846 95.8926C144.003 95.0275 144.476 93.5716 145.667 93.3673L151.686 92.3343C152.145 92.2554 152.542 91.967 152.759 91.5541L155.602 86.1488Z" fill="#FFBE17"/>
<path d="M187.313 86.1488C187.876 85.0797 189.406 85.0797 189.969 86.1488L192.811 91.5541C193.028 91.967 193.425 92.2554 193.885 92.3343L199.904 93.3673C201.094 93.5716 201.568 95.0275 200.724 95.8926L196.462 100.266C196.136 100.6 195.985 101.067 196.052 101.529L196.929 107.572C197.103 108.768 195.865 109.668 194.781 109.133L189.305 106.431C188.886 106.224 188.396 106.224 187.977 106.431L182.501 109.133C181.417 109.668 180.179 108.768 180.352 107.572L181.23 101.529C181.297 101.067 181.145 100.6 180.82 100.266L176.557 95.8926C175.714 95.0275 176.187 93.5716 177.378 93.3673L183.397 92.3343C183.857 92.2554 184.254 91.967 184.471 91.5541L187.313 86.1488Z" fill="#FFBE17"/>
<path d="M219.025 86.1488C219.587 85.0797 221.118 85.0797 221.68 86.1488L224.522 91.5541C224.739 91.967 225.136 92.2554 225.596 92.3343L231.615 93.3673C232.806 93.5716 233.279 95.0275 232.436 95.8926L228.173 100.266C227.848 100.6 227.696 101.067 227.763 101.529L228.641 107.572C228.814 108.768 227.576 109.668 226.493 109.133L221.016 106.431C220.598 106.224 220.107 106.224 219.689 106.431L214.212 109.133C213.129 109.668 211.89 108.768 212.064 107.572L212.941 101.529C213.008 101.067 212.857 100.6 212.531 100.266L208.269 95.8926C207.426 95.0275 207.899 93.5716 209.089 93.3673L215.108 92.3343C215.568 92.2554 215.965 91.967 216.182 91.5541L219.025 86.1488Z" fill="#FFBE17"/>
<path d="M250.736 86.1488C251.298 85.0797 252.829 85.0797 253.391 86.1488L256.234 91.5541C256.451 91.967 256.848 92.2554 257.308 92.3343L263.327 93.3673C264.517 93.5716 264.99 95.0275 264.147 95.8926L259.885 100.266C259.559 100.6 259.408 101.067 259.475 101.529L260.352 107.572C260.526 108.768 259.287 109.668 258.204 109.133L252.727 106.431C252.309 106.224 251.818 106.224 251.4 106.431L245.923 109.133C244.84 109.668 243.602 108.768 243.775 107.572L244.653 101.529C244.72 101.067 244.568 100.6 244.243 100.266L239.98 95.8926C239.137 95.0275 239.61 93.5716 240.801 93.3673L246.82 92.3343C247.28 92.2554 247.677 91.967 247.894 91.5541L250.736 86.1488Z" fill="#FFBE17"/>
<path d="M282.89 86.3816C283.265 85.6688 284.285 85.6688 284.66 86.3816L287.503 91.7868C287.792 92.3374 288.321 92.7219 288.934 92.8271L294.953 93.8601C295.747 93.9963 296.063 94.9669 295.501 95.5436L291.238 99.9172C290.804 100.363 290.602 100.985 290.691 101.6L291.569 107.644C291.685 108.441 290.859 109.041 290.137 108.685L284.66 105.982C284.102 105.707 283.448 105.707 282.89 105.982L277.413 108.685C276.691 109.041 275.866 108.441 275.981 107.644L276.859 101.6C276.948 100.985 276.746 100.363 276.312 99.9172L272.05 95.5436C271.488 94.9669 271.803 93.9963 272.597 93.8601L278.616 92.8271C279.229 92.7219 279.758 92.3374 280.048 91.7868L282.89 86.3816Z" stroke="#FFBE17"/>
<path d="M103.425 249.135V255.835C103.425 257.566 101.981 258.996 100.132 259.17C100.008 259.182 99.8806 259.189 99.7533 259.189H99.1838C98.8401 259.189 98.506 259.144 98.1941 259.062V257.746C98.4964 257.862 98.8306 257.932 99.1838 257.932H99.7533C99.8838 257.932 100.008 257.922 100.132 257.903C101.281 257.746 102.159 256.877 102.159 255.835V249.135C102.159 248.093 101.281 247.225 100.132 247.067C100.008 247.048 99.8806 247.038 99.7533 247.038H99.1838C98.8306 247.038 98.4933 247.105 98.1941 247.225V245.908C98.5092 245.826 98.8401 245.782 99.1838 245.782H99.7533C99.8838 245.782 100.008 245.788 100.132 245.801C101.981 245.974 103.425 247.405 103.425 249.135Z" fill="#302F38"/>
<path d="M100.132 244.692V248.128C100.132 248.661 99.6993 249.091 99.1616 249.091C98.8943 249.091 98.6493 248.983 98.4742 248.81C98.2992 248.636 98.191 248.396 98.191 248.128V244.692C98.191 244.162 98.6238 243.729 99.1616 243.729C99.4289 243.729 99.6739 243.837 99.8489 244.01C100.021 244.187 100.132 244.427 100.132 244.692Z" fill="#8F8CA7"/>
<path d="M100.132 256.675V260.111C100.132 260.641 99.6993 261.074 99.1616 261.074C98.8943 261.074 98.6493 260.966 98.4742 260.793C98.2992 260.616 98.191 260.376 98.191 260.111V256.675C98.191 256.142 98.6238 255.712 99.1616 255.712C99.4289 255.712 99.6739 255.82 99.8489 255.993C100.021 256.167 100.132 256.41 100.132 256.675Z" fill="#8F8CA7"/>
<path d="M64.032 286.526C62.2043 286.526 60.7227 285.056 60.7227 283.242C60.7227 281.429 62.2043 279.959 64.032 279.959C65.8597 279.959 67.3413 281.429 67.3413 283.242C67.3413 285.056 65.8597 286.526 64.032 286.526Z" fill="#8F8CA7"/>
<path d="M64.032 285.585C62.7281 285.585 61.671 284.536 61.671 283.242C61.671 281.949 62.7281 280.9 64.032 280.9C65.336 280.9 66.3931 281.949 66.3931 283.242C66.3931 284.536 65.336 285.585 64.032 285.585Z" fill="#302F38"/>
<path d="M88.8582 286.526C87.0305 286.526 85.5489 285.056 85.5489 283.242C85.5489 281.429 87.0305 279.959 88.8582 279.959C90.6859 279.959 92.1675 281.429 92.1675 283.242C92.1675 285.056 90.6859 286.526 88.8582 286.526Z" fill="#8F8CA7"/>
<path d="M88.8582 285.585C87.5542 285.585 86.4971 284.536 86.4971 283.242C86.4971 281.949 87.5542 280.9 88.8582 280.9C90.1622 280.9 91.2192 281.949 91.2192 283.242C91.2192 284.536 90.1622 285.585 88.8582 285.585Z" fill="#302F38"/>
<path d="M64.5412 201.501H66.0622V223.622H64.5412V201.501Z" fill="#8F8CA7"/>
<path d="M86.828 201.501H88.3491V223.623H86.828V201.501Z" fill="#8F8CA7"/>
<path d="M91.477 222.189H61.4132C57.1238 222.189 53.8495 225.485 53.8495 229.956V275.106C53.8495 279.577 57.1207 282.996 61.4132 282.996H91.477C95.7663 282.996 99.7311 279.577 99.7311 275.106V229.953C99.7311 225.485 95.7663 222.189 91.477 222.189Z" fill="#EE8F00"/>
<path d="M97.2682 231.99C97.2682 227.923 94.0353 225.242 90.131 225.242H62.7719C58.8676 225.242 56.3156 227.923 56.3156 231.99V273.063C56.3156 277.129 58.8676 280.24 62.7719 280.24H90.131C94.0353 280.24 97.2682 277.129 97.2682 273.063V231.99Z" fill="#EE8F00"/>
<g opacity="0.7">
<path opacity="0.7" d="M61.8587 231.778C61.8587 231.036 62.4633 230.436 63.2111 230.436H63.5897C64.3343 230.436 64.9421 231.036 64.9421 231.778V273.401C64.9421 274.139 64.3375 274.743 63.5897 274.743H63.2111C62.4665 274.743 61.8587 274.143 61.8587 273.401V231.778Z" fill="#FFEAA0"/>
<path opacity="0.7" d="M70.4788 231.778C70.4788 231.036 71.0834 230.436 71.8312 230.436H72.2098C72.9544 230.436 73.5622 231.036 73.5622 231.778V273.401C73.5622 274.139 72.9576 274.743 72.2098 274.743H71.8312C71.0866 274.743 70.4788 274.143 70.4788 273.401V231.778Z" fill="#FFEAA0"/>
<path opacity="0.7" d="M79.4107 231.778C79.4107 231.036 80.0153 230.436 80.7631 230.436H81.1417C81.8863 230.436 82.4941 231.036 82.4941 231.778V273.401C82.4941 274.139 81.8895 274.743 81.1417 274.743H80.7631C80.0185 274.743 79.4107 274.143 79.4107 273.401V231.778Z" fill="#FFEAA0"/>
<path opacity="0.7" d="M88.6481 231.778C88.6481 231.036 89.2527 230.436 90.0005 230.436H90.3791C91.1237 230.436 91.7315 231.036 91.7315 231.778V273.401C91.7315 274.139 91.1269 274.743 90.3791 274.743H90.0005C89.2559 274.743 88.6481 274.143 88.6481 273.401V231.778Z" fill="#FFEAA0"/>
</g>
<path d="M84.3078 189.686H69.4668C66.8289 189.686 64.1592 190.961 64.1592 193.402V201.52C64.1592 201.785 64.3755 202.003 64.646 202.003H65.9538C66.2211 202.003 66.4407 201.788 66.4407 201.52V193.402C66.4407 192.628 67.8567 191.949 69.47 191.949H84.3078C86.4493 191.949 86.4493 193.045 86.4493 193.402V201.52C86.4493 201.785 86.6656 202.003 86.9361 202.003H88.2439C88.5112 202.003 88.7308 201.788 88.7308 201.52V193.402C88.7308 191.605 87.5693 189.686 84.3078 189.686Z" fill="#302F38"/>
<path d="M61.6265 281.885H61.1842C57.5535 281.885 54.5974 278.781 54.5974 274.967V268.238C54.5974 268.188 54.6387 268.143 54.6928 268.143C54.7437 268.143 54.7883 268.184 54.7883 268.238V274.967C54.7883 278.677 57.6585 281.695 61.1842 281.695H61.6265C61.6774 281.695 61.7219 281.736 61.7219 281.79C61.7219 281.844 61.6774 281.885 61.6265 281.885Z" fill="white"/>
<path d="M54.6928 266.615C54.6419 266.615 54.5974 266.574 54.5974 266.52V262.624C54.5974 262.573 54.6387 262.529 54.6928 262.529C54.7437 262.529 54.7883 262.57 54.7883 262.624V266.52C54.7883 266.571 54.7437 266.615 54.6928 266.615Z" fill="white"/>
<path d="M103.201 283.836C103.201 283.738 103.208 283.64 103.233 283.542C104.716 277.71 110.775 274.723 110.775 274.723L113.689 274.95C115.366 280.091 116.445 282.598 116.178 284.003C116.171 284.041 116.159 284.079 116.149 284.117C113.743 284.328 108.792 284.467 103.201 283.836Z" fill="#914B29"/>
<path d="M116.149 284.113C116.019 284.581 115.672 284.947 115.223 285.042C111.802 285.755 106.364 285.181 104.083 284.884C103.58 284.818 103.211 284.357 103.201 283.836C108.792 284.467 113.743 284.328 116.149 284.113Z" fill="#4A1801"/>
<path d="M108.375 270.217L109.651 276.314C109.744 276.76 110.091 277.094 110.511 277.135C111.023 277.183 111.755 277.211 112.487 277.104C113.145 277.009 113.603 276.343 113.486 275.632L112.598 270.217H108.375Z" fill="url(#paint0_linear)"/>
<path d="M140.918 284.063C137.806 283.978 136.193 283.612 135.362 283.274C135.359 283.58 135.362 283.893 135.372 284.218C135.381 284.565 135.642 284.84 135.957 284.837L153.051 284.726C153.595 284.723 153.917 284.095 153.678 283.599C151.441 283.785 145.732 284.196 140.918 284.063Z" fill="url(#paint1_linear)"/>
<path d="M153.681 283.602C153.662 283.558 153.643 283.513 153.614 283.472C152.106 281.379 148.259 277.211 140.66 275.402L137.014 275.288C137.014 275.288 135.391 278.089 135.359 283.274C136.193 283.611 137.803 283.974 140.915 284.063C145.732 284.195 151.441 283.785 153.681 283.602Z" fill="#914B29"/>
<path d="M136.339 269.81C136.38 270.078 136.88 274.177 137.074 275.765C137.119 276.144 137.396 276.434 137.742 276.475C138.363 276.548 139.368 276.614 140.247 276.438C140.721 276.34 141.064 275.888 141.064 275.364V268.932L136.339 269.81Z" fill="url(#paint2_linear)"/>
<path d="M110.81 190.153C110.81 190.153 104.977 241.601 108.216 273.757C108.216 273.757 112.105 273.757 114.049 273.113C114.049 273.113 120.111 222.811 122.071 208.416C122.144 207.872 122.927 207.847 123.032 208.384C125.45 220.493 134.955 267.985 136.084 272.469C136.084 272.469 139.324 273.754 141.917 272.469C141.917 272.469 136.733 203.657 132.845 191.438L110.81 190.153Z" fill="#84190C"/>
<path d="M99.1444 130.343C99.1444 130.343 123.773 126.485 143.215 131.628L141.92 151.565C141.92 151.565 136.737 179.218 132.848 191.438C132.848 191.438 117.941 194.011 110.813 190.153C110.813 190.153 104.98 155.426 101.741 150.28C101.738 150.28 98.4984 136.775 99.1444 130.343Z" fill="#FFBE17"/>
<path d="M116.254 112.772L113.801 129.235C113.801 129.235 120.655 132.361 125.453 129.102L124.419 117.483L116.254 112.772Z" fill="#FF8B6B"/>
<path d="M99.1443 130.343C99.1443 130.343 60.9059 171.501 105.951 187.257V184.043C105.951 184.043 89.0986 169.894 102.062 150.602C102.062 150.602 100.443 132.272 99.1443 130.343Z" fill="#FFBE17"/>
<path d="M106.275 184.365C106.275 184.365 112.108 180.506 114.701 181.792C117.295 183.077 117.295 185.006 117.295 185.006C117.295 185.006 116 187.579 114.055 186.935C112.111 186.291 107.574 187.579 105.629 186.935C105.626 186.935 104.977 184.365 106.275 184.365Z" fill="#FF8B6B"/>
<path d="M143.215 131.628C143.215 131.628 183.073 171.501 138.032 187.257V184.043C138.032 184.043 154.884 169.894 141.92 150.602C141.92 150.602 140.622 134.846 143.215 131.628Z" fill="#FFBE17"/>
<path d="M137.707 184.365C137.707 184.365 131.875 180.506 129.281 181.792C126.688 183.077 126.688 185.006 126.688 185.006C126.688 185.006 127.983 187.579 129.927 186.935C131.871 186.291 136.409 187.579 138.353 186.935C138.353 186.935 139.002 184.365 137.707 184.365Z" fill="#FF8B6B"/>
<path d="M124.546 99.8101C124.709 99.9964 130.583 115.219 130.583 115.219L121.753 118.36L114.027 104.755C114.027 104.758 121.835 96.6842 124.546 99.8101Z" fill="#FF8B6B"/>
<path d="M117.705 105.497C117.514 105.866 117.505 106.299 117.683 106.674L121.135 114.044C121.186 114.155 121.253 114.259 121.336 114.35C121.784 114.862 123.35 116.384 124.861 114.698C126.15 113.261 127.356 111.957 128.549 111.493C129.246 111.221 130.029 111.578 130.293 112.273C130.837 113.703 131.881 116.611 132.441 119.323C132.581 120.002 132.164 120.675 131.493 120.864C129.72 121.369 126.226 122.254 123.197 122.348C122.701 122.364 122.236 122.108 121.988 121.682C120.89 119.803 117.791 114.546 116.687 113.198C115.659 111.944 113.498 112.15 112.515 112.32C112.143 112.386 111.761 112.295 111.459 112.067C110.552 111.389 109.018 109.769 110.822 107.492C111.271 106.927 111.163 106.097 110.6 105.642C109.594 104.824 108.563 103.375 109.909 101.348C111.271 99.2953 113.311 99.3143 114.669 99.6237C115.271 99.7626 115.923 99.51 116.216 98.9701C116.346 98.7301 116.575 98.5375 116.964 98.5028C117.699 98.4333 118.243 97.8302 118.179 97.0977C118.068 95.8442 118.421 94.2686 120.512 93.3971C124.346 91.7994 127.178 95.3548 127.697 98.1586C128.215 100.962 123.958 102.459 121.374 102.513C119.474 102.56 118.23 104.48 117.705 105.497Z" fill="#4A1801"/>
<path d="M117.988 115.91C117.988 115.91 116.875 111.06 114.794 111.016C112.713 110.972 110.87 112.841 113.183 115.402C116.06 118.588 117.988 115.91 117.988 115.91Z" fill="#FF8B6B"/>
<path d="M124.445 100.899C124.406 100.899 124.371 100.881 124.349 100.846C124.317 100.795 124.336 100.729 124.39 100.697C125.301 100.176 125.829 99.4944 125.959 98.6671C126.255 96.8358 124.524 94.8813 124.505 94.8623C124.464 94.8181 124.47 94.7487 124.515 94.7076C124.559 94.6666 124.629 94.6697 124.67 94.7171C124.744 94.7992 126.487 96.7695 126.176 98.7018C126.032 99.5923 125.466 100.328 124.499 100.884C124.48 100.896 124.46 100.899 124.445 100.899Z" fill="white"/>
<path d="M236.081 111.866C236.081 111.866 216.852 135.869 196.786 138.749C196.786 138.749 199.418 149.907 202.218 151.455C202.218 151.455 228.406 134.151 236.67 115.636L236.081 111.866Z" fill="#FF8B6B"/>
<path d="M235.39 117.158C235.381 117.694 233.351 117.849 232.962 115.513C233.246 114.546 234.025 110.271 234.856 109.684C239.295 106.555 246.951 103.322 246.951 103.322C247.625 104.632 246.477 105.323 246.477 105.323L242.61 107.351C242.852 108.626 243.282 109.779 243.19 111.196C243.12 112.27 242.607 113.274 241.805 114.007C241 114.742 239.918 115.689 238.961 116.394C237.15 117.723 235.39 117.158 235.39 117.158Z" fill="#FF8B6B"/>
<path d="M235.798 112.131L237.354 110.208L240.711 108.866C241.163 109.321 241.312 109.876 240.415 110.625C239.518 111.376 237.277 115.468 237.277 115.468L235.798 112.131Z" fill="#FF8B6B"/>
<path d="M190.473 108.955C187.084 109.093 183.447 110.35 180.704 112.305C175.61 115.929 175.062 121.963 172.988 127.36C171.849 130.325 169.815 133.937 167.158 135.85C161.94 139.604 155.798 139.649 151.716 145.095C141.311 158.973 145.769 183.907 165.262 186.212C177.309 187.636 193.012 182.774 194.444 168.837C196.43 149.446 196.948 107.426 190.473 108.955Z" fill="#4A1801"/>
<path d="M153.902 279.403L153.447 283.984C153.361 284.853 152.69 285.554 151.818 285.674C150.348 285.876 147.983 286.1 145.661 285.91C144.642 285.828 143.958 284.821 144.245 283.845C144.77 282.068 145.74 279.4 147.194 277.808L152.301 277.691C153.243 277.666 153.994 278.468 153.902 279.403Z" fill="#471F2A"/>
<path d="M192.649 224.98L193.629 229.991C193.629 229.991 191.418 259.065 191.176 270.682C191.138 272.504 191.653 274.291 192.653 275.819L197.858 283.792L184.93 276.615L184.64 275.077L186.661 272.182L183.17 239.748C182.967 237.844 183.317 235.918 184.185 234.206L186.709 229.227L192.649 224.98Z" fill="#FF8B6B"/>
<path d="M198.727 284.941L194.657 285.036C193.897 285.055 193.168 284.723 192.691 284.133C191.383 282.526 188.681 279.393 187.421 279.34C185.725 279.267 186.082 285.232 186.082 285.232L185.134 285.254L183.759 277.862C183.412 276.002 184.306 274.133 185.974 273.22C185.974 273.22 186.425 276.05 188.554 277.259C190.68 278.465 197.222 282.816 197.222 282.816C197.222 282.816 198.008 282.687 198.877 282.822C200.165 283.021 200.032 284.913 198.727 284.941Z" fill="#471F2A"/>
<path d="M175.237 227.768C175.237 227.768 159.07 259.981 156.553 267.31C154.036 274.638 153.234 280.72 153.211 281.294C153.176 282.191 152.072 283.078 148.973 283.151C147.372 283.189 146.577 282.57 146.179 281.964C145.839 281.446 145.807 280.789 146.071 280.23C147.003 278.244 149.959 271.894 151.044 269.021C152.336 265.592 154.933 250.12 156.425 244.727C157.921 239.334 159.614 233.483 166.541 227.97C166.538 227.967 171.266 223.152 175.237 227.768Z" fill="#FF8B6B"/>
<path d="M184.704 175.376C188.64 156.936 177.347 146.819 177.347 146.819C181.092 143.081 186.597 140.397 190.794 138.739C194.584 137.239 198.918 138.083 201.858 140.896C205.091 143.99 208.553 148.31 207.847 152.14C207.099 156.194 199.888 176.497 199.888 176.497C199.888 176.497 192.866 179.989 184.704 175.376Z" fill="#00A9BA"/>
<path d="M175.247 184.678C176.898 179.332 184.707 175.376 184.707 175.376C192.869 179.989 199.892 176.493 199.892 176.493C199.892 176.493 201.623 182.496 200.655 188.132C199.688 193.768 197.248 252.217 197.248 252.217C186.435 254.651 153.415 248.601 153.415 248.601C160.046 236.252 173.596 190.023 175.247 184.678Z" fill="#00A9BA"/>
<path d="M192.054 127.281L189.362 140.375C189.054 141.774 189.929 141.957 191.358 142.156C193.623 142.468 196.541 142.56 197.499 140.744C197.598 140.558 197.642 140.353 197.668 140.144L198.937 129.15C199.039 128.278 198.546 127.445 197.728 127.107L194.759 125.882C193.614 125.408 192.315 126.078 192.054 127.281Z" fill="#FF8B6B"/>
<path d="M195.294 114.717C195.294 114.717 200.13 116.308 203.85 122.765C207.57 129.223 205.441 132.509 202.492 133.169C199.542 133.829 195.074 134.117 190.005 130.157C184.936 126.198 189.025 112.873 195.294 114.717Z" fill="#FF8B6B"/>
<path d="M191.997 127.495C191.997 127.495 189.808 122.579 187.587 124.783C185.369 126.984 189.897 129.301 191.657 130.028L191.997 127.495Z" fill="url(#paint3_linear)"/>
<path d="M192.891 126.324C192.891 126.324 188.573 116.788 197.334 115.98L199.513 117.249C199.513 117.249 202.294 111.553 196.805 109.371C191.316 107.189 183.622 110.126 181.939 117.363C180.259 124.6 181.939 129.055 185.948 132.137C189.958 135.219 191.192 131.269 191.192 131.269C191.192 131.269 188.901 128.269 189.595 126.513C190.289 124.758 192.363 126.646 192.363 126.646L192.891 126.324Z" fill="#4A1801"/>
<path d="M150.711 162.105C150.72 162.105 150.726 162.105 150.736 162.102C150.8 162.089 150.838 162.026 150.825 161.966C148.874 153.096 155.932 148.385 162.159 144.23C162.214 144.195 162.226 144.123 162.191 144.072C162.156 144.019 162.083 144.006 162.032 144.041C155.744 148.237 148.617 152.992 150.602 162.013C150.609 162.067 150.656 162.105 150.711 162.105Z" fill="white"/>
<path d="M172.469 135.629C172.507 135.629 172.542 135.613 172.565 135.579C174.175 133.27 175.031 130.53 175.858 127.877C176.679 125.25 177.529 122.532 179.11 120.192C180.462 118.193 182.066 116.665 183.769 115.049C184.096 114.739 184.424 114.427 184.755 114.104C184.799 114.06 184.803 113.988 184.758 113.943C184.714 113.899 184.64 113.896 184.596 113.94C184.265 114.259 183.937 114.572 183.613 114.881C181.904 116.507 180.287 118.045 178.922 120.063C177.322 122.431 176.469 125.165 175.642 127.808C174.817 130.445 173.968 133.169 172.377 135.446C172.342 135.497 172.355 135.569 172.405 135.604C172.425 135.62 172.447 135.629 172.469 135.629Z" fill="white"/>
<path d="M191.094 122.358C191.094 122.358 201.432 119.027 202.243 116.99C203.055 114.954 202.049 112.848 198.749 112.548C195.447 112.245 185.461 114.493 191.094 122.358Z" fill="#4A1801"/>
<path d="M215.395 103.031C216.772 105.538 206.151 113.921 191.673 121.755C177.194 129.589 164.342 133.905 162.964 131.398C161.587 128.891 172.208 120.508 186.686 112.674C201.165 104.84 214.017 100.524 215.395 103.031Z" fill="#066D52"/>
<path d="M198.005 110.012C198.005 110.012 191.466 99.2199 187.005 102.09C182.543 104.957 174.814 107.019 174.213 109.542C173.612 112.065 175.479 121.442 175.479 121.442C175.479 121.442 187.266 122.721 198.005 110.012Z" fill="#066D52"/>
<path d="M196.462 107.098C196.395 107.006 196.29 106.949 196.178 106.943C196.064 106.937 195.952 106.981 195.876 107.066C194.836 108.209 191.294 111.888 186.83 114.288C183.132 116.274 176.434 117.65 174.83 117.96C174.633 117.998 174.499 118.181 174.528 118.376L174.967 121.483C174.996 121.676 175.167 121.815 175.365 121.799C176.835 121.682 182.68 121.073 188.137 118.544C193.709 115.964 197.499 111.196 198.304 110.123C198.399 109.993 198.403 109.82 198.31 109.69L196.462 107.098Z" fill="#BAF8E1"/>
<path d="M184.994 123.949C184.994 123.949 184.99 123.949 184.99 123.953C172.857 129.646 166.159 131.846 164.963 130.28C164.196 129.276 166.022 127.186 166.099 127.097C166.134 127.06 166.194 127.05 166.232 127.085C166.274 127.12 166.274 127.18 166.239 127.217C166.22 127.236 164.435 129.27 165.106 130.148C165.882 131.164 169.946 130.88 184.889 123.747C184.936 123.725 185.003 123.757 185.025 123.807C185.048 123.858 185.038 123.927 184.994 123.949Z" fill="white"/>
<path d="M178.824 109.305C177.389 110.082 176.307 110.325 175.597 110.028C175.088 109.816 174.983 109.4 174.98 109.384C174.967 109.333 175.002 109.28 175.05 109.267C175.101 109.254 175.155 109.286 175.168 109.337C175.171 109.352 175.263 109.681 175.68 109.854C176.179 110.06 177.194 110.056 179.199 108.876C180.014 108.396 180.968 107.859 181.977 107.29C185.054 105.557 188.882 103.4 188.978 102.63C188.984 102.583 188.971 102.545 188.936 102.513C188.898 102.475 188.895 102.415 188.933 102.377C188.971 102.34 189.032 102.336 189.07 102.374C189.149 102.447 189.181 102.545 189.168 102.652C189.07 103.457 186.165 105.15 182.073 107.455C181.064 108.023 180.112 108.56 179.298 109.04C179.132 109.134 178.976 109.223 178.824 109.305Z" fill="white"/>
<path d="M184.949 173.494C184.752 173.396 184.462 173.453 184.338 173.636C183.759 174.501 183.434 175.028 183.285 175.351C183.231 175.464 183.218 175.59 183.266 175.704C183.317 175.818 183.507 175.909 183.625 175.947C185.884 176.68 196.732 180.008 200.27 177.596L200.391 175.382C200.394 175.385 192.449 177.273 184.949 173.494Z" fill="#84190C"/>
<path d="M171.772 202.47L171.235 206.629L169.182 206.367L169.72 202.208C169.857 201.154 169.204 200.156 168.142 200.023L159.919 198.975C158.857 198.839 157.95 199.638 157.813 200.693L157.275 204.851L155.223 204.589L155.76 200.431C156.037 198.283 157.969 197.071 160.132 197.346L168.355 198.394C170.515 198.669 172.049 200.323 171.772 202.47Z" fill="#302F38"/>
<path d="M158.589 204.355L158.586 204.387C158.525 204.857 158.214 204.968 157.775 204.911L154.631 204.51C154.192 204.453 154.01 204.28 154.071 203.809L154.074 203.778C154.134 203.307 154.347 203.231 154.787 203.288L157.93 203.689C158.37 203.749 158.65 203.888 158.589 204.355Z" fill="#8F8CA7"/>
<path d="M172.959 206.187L172.956 206.218C172.896 206.689 172.288 206.761 171.849 206.708L168.705 206.307C168.266 206.25 167.556 206.01 167.62 205.539L167.623 205.508C167.683 205.037 168.425 205.028 168.864 205.085L172.008 205.486C172.447 205.539 173.02 205.716 172.959 206.187Z" fill="#8F8CA7"/>
<path d="M186.2 213.525C186.61 210.364 184.357 207.472 181.172 207.068L144.261 202.366C141.075 201.962 138.161 204.194 137.753 207.355L134.807 230.13C134.396 233.291 136.649 236.183 139.834 236.587L176.746 241.289C179.931 241.693 182.846 239.461 183.253 236.3L186.2 213.525Z" fill="#E54C38"/>
<path opacity="0.26" d="M184.57 214.469C184.936 211.637 182.804 209.092 179.813 208.71L145.167 204.298C142.179 203.916 139.465 205.846 139.099 208.678L136.487 228.886C136.121 231.718 138.246 234.326 141.234 234.705L175.88 239.116C178.868 239.498 181.589 237.509 181.955 234.674L184.57 214.469Z" fill="#E54C38"/>
<path d="M145.645 236.685C145.54 237.484 145.002 238.074 144.175 237.97L142.555 237.765C141.731 237.661 141.435 236.963 141.537 236.164L145.848 202.84C145.953 202.041 146.421 201.397 147.245 201.501L148.865 201.706C149.689 201.81 150.058 202.562 149.953 203.361L145.645 236.685Z" fill="#84190C"/>
<path d="M150.52 211.895L150.784 209.856C150.917 208.814 150.173 208.088 149.027 207.942L145.689 207.516C144.477 207.361 143.112 207.854 142.981 208.861L142.717 210.901C142.58 211.952 143.799 213.073 144.951 213.222L148.289 213.648C149.377 213.784 150.38 212.982 150.52 211.895ZM148.868 209.164C149.463 209.24 149.616 209.208 149.552 209.698L149.288 211.738C149.228 212.211 149.053 212.502 148.448 212.423L145.11 211.997C144.464 211.914 143.891 211.501 143.949 211.056L144.213 209.016C144.27 208.577 144.9 208.656 145.53 208.738L148.868 209.164Z" fill="white"/>
<path d="M145.689 213.752C145.661 213.964 145.467 214.112 145.253 214.087L145.206 214.08C144.993 214.052 144.843 213.859 144.868 213.648L145.19 211.153C145.218 210.942 145.413 210.794 145.626 210.819L145.673 210.825C145.887 210.854 146.036 211.046 146.011 211.258L145.689 213.752Z" fill="#E3E1EE"/>
<path d="M147.742 214.013C147.713 214.225 147.519 214.373 147.306 214.348L147.258 214.342C147.045 214.313 146.895 214.121 146.921 213.909L147.242 211.415C147.271 211.203 147.465 211.055 147.678 211.08L147.726 211.086C147.939 211.115 148.088 211.307 148.063 211.519L147.742 214.013Z" fill="#E3E1EE"/>
<path d="M175.616 240.502C175.511 241.301 174.649 241.851 173.821 241.746L172.202 241.541C171.378 241.437 170.585 240.676 170.687 239.877L174.996 206.556C175.101 205.757 176.065 205.176 176.889 205.28L178.509 205.486C179.333 205.59 180.026 206.382 179.921 207.181L175.616 240.502Z" fill="#84190C"/>
<path d="M180.081 215.659L180.345 213.619C180.478 212.577 179.82 211.864 178.674 211.719L175.336 211.292C174.124 211.138 173.083 211.671 172.953 212.679L172.689 214.718C172.552 215.77 173.446 216.85 174.598 216.998L177.936 217.424C179.027 217.56 179.941 216.749 180.081 215.659ZM178.518 212.941C179.113 213.016 179.591 213.026 179.527 213.515L179.263 215.555C179.202 216.029 178.703 216.278 178.098 216.199L174.76 215.773C174.114 215.691 173.456 215.268 173.513 214.822L173.777 212.783C173.834 212.344 174.55 212.435 175.18 212.514L178.518 212.941Z" fill="white"/>
<path d="M175.25 217.519C175.222 217.731 175.028 217.879 174.814 217.854L174.767 217.847C174.553 217.819 174.404 217.626 174.429 217.415L174.751 214.92C174.779 214.709 174.973 214.56 175.187 214.586L175.234 214.592C175.448 214.62 175.597 214.813 175.572 215.025L175.25 217.519Z" fill="#E3E1EE"/>
<path d="M177.713 217.83C177.684 218.042 177.49 218.19 177.277 218.165L177.229 218.159C177.016 218.13 176.867 217.938 176.892 217.726L177.214 215.232C177.242 215.02 177.436 214.872 177.649 214.897L177.697 214.904C177.91 214.932 178.06 215.125 178.034 215.336L177.713 217.83Z" fill="#E3E1EE"/>
<path d="M138.189 234.191C138.161 234.187 138.11 234.175 138.084 234.159C136.414 233.067 135.507 231.163 135.761 229.195L136.124 226.395C136.137 226.294 136.251 226.221 136.353 226.237C136.455 226.249 136.547 226.347 136.535 226.448L136.172 229.249C135.936 231.074 136.761 232.839 138.31 233.853C138.396 233.91 138.425 234.026 138.367 234.112C138.326 234.168 138.259 234.197 138.189 234.191Z" fill="white"/>
<path d="M182.429 234.611C182.327 234.598 182.235 234.5 182.248 234.399L183.606 223.891C183.619 223.79 183.734 223.717 183.835 223.733C183.937 223.746 184.029 223.843 184.017 223.944L182.658 234.453C182.645 234.554 182.534 234.626 182.429 234.611Z" fill="white"/>
<path d="M184.157 221.261C184.055 221.248 183.963 221.15 183.975 221.049L184.599 216.228C184.612 216.126 184.726 216.054 184.828 216.07C184.93 216.085 185.022 216.18 185.009 216.281L184.386 221.103C184.373 221.204 184.258 221.276 184.157 221.261Z" fill="white"/>
<path d="M182.734 154.375C182.098 155.123 172.526 165.243 169.3 176.942C166.073 188.64 166.503 196.591 166.503 196.591C166.503 196.591 169.01 198.669 167.995 199.988C166.98 201.308 167.177 202.259 165.959 202.458C164.743 202.66 163.232 202.953 163.544 200.611C163.855 198.268 161.049 197.639 161.599 196.241C162.147 194.851 161.049 156.469 177.121 146.949C177.198 146.905 177.274 146.86 177.35 146.816C183.772 149.522 183.756 153.172 182.734 154.375Z" fill="#FF8B6B"/>
<path d="M111.606 80.8773C107.658 78.7228 105.865 80.5158 104.434 78.7228C103.002 76.9298 108.381 72.2666 97.6231 67.6034C97.6231 67.6034 96.9074 57.5612 82.2019 57.2068C67.4965 56.8525 71.4439 67.2491 67.4965 69.7649C63.5491 72.2737 62.4789 68.3334 58.5315 70.8421C54.5841 73.3509 56.3771 78.3756 53.1525 79.0914C49.9279 79.8071 45.6191 75.8668 41.6787 78.3756C37.7313 80.8844 37.7313 83.0388 35.9383 83.0388C34.1453 83.0388 30.5593 81.6072 28.4049 83.0388C26.2504 84.4703 23.7416 86.2633 23.7416 86.2633H114.469C114.476 86.2563 115.553 83.0317 111.606 80.8773Z" stroke="#302F38" stroke-width="0.610888" stroke-miterlimit="10" stroke-linecap="round" stroke-linejoin="round"/>
<path d="M57.9362 79.4032C57.511 79.6512 56.9865 79.8993 56.3345 80.1615" stroke="#302F38" stroke-width="0.610888" stroke-miterlimit="10" stroke-linecap="round" stroke-linejoin="round"/>
<path d="M77.3474 62.6567C77.3474 62.6567 74.5055 63.7481 73.8464 67.0365C73.1873 70.3177 71.6566 72.5076 69.9061 72.7273C68.1556 72.947 61.5931 72.2879 60.4946 74.6975C60.1119 75.5408 60.0198 76.2566 59.8851 76.8944" stroke="#302F38" stroke-width="0.610888" stroke-miterlimit="10" stroke-linecap="round" stroke-linejoin="round"/>
<path d="M317.348 141.296C315.84 140.473 315.155 141.157 314.609 140.473C314.064 139.788 316.118 138.007 312.005 136.226C312.005 136.226 311.732 132.391 306.111 132.252C300.495 132.113 301.998 136.087 300.495 137.049C298.986 138.007 298.574 136.504 297.066 137.461C295.558 138.419 296.243 140.339 295.012 140.612C293.777 140.884 292.135 139.376 290.627 140.339C289.118 141.296 289.118 142.12 288.434 142.12C287.749 142.12 286.38 141.574 285.556 142.12C284.733 142.665 283.775 143.355 283.775 143.355H318.444C318.444 143.35 318.856 142.12 317.348 141.296Z" stroke="#302F38" stroke-width="0.610888" stroke-miterlimit="10" stroke-linecap="round" stroke-linejoin="round"/>
<path d="M296.836 140.735C296.676 140.831 296.473 140.922 296.227 141.023" stroke="#302F38" stroke-width="0.610888" stroke-miterlimit="10" stroke-linecap="round" stroke-linejoin="round"/>
<path d="M304.255 134.332C304.255 134.332 303.169 134.75 302.917 136.006C302.666 137.263 302.083 138.098 301.415 138.183C300.746 138.269 298.237 138.017 297.82 138.937C297.676 139.258 297.638 139.531 297.585 139.777" stroke="#302F38" stroke-width="0.610888" stroke-miterlimit="10" stroke-linecap="round" stroke-linejoin="round"/>
<path d="M60.0708 286.54C60.0708 286.54 70.0989 277.749 70.1481 264.022C70.1972 250.296 62.0078 243.823 62.0078 243.823C62.0078 243.823 63.8478 249.686 60.2918 255.685C56.7357 261.685 55.3145 275.396 60.0708 286.54Z" fill="#066D52"/>
<path d="M58.5343 286.14C58.5343 286.14 64.396 274.163 59.1424 261.477C53.8889 248.79 47.8691 246.137 47.8691 246.137C47.8691 246.137 47.6612 252.761 46.6934 259.662C45.7256 266.563 47.3293 278.014 58.5343 286.14Z" fill="#0FA37C"/>
<path d="M57.6693 285.907C57.6418 285.976 57.5789 286.019 57.5141 286.038C57.3885 286.068 57.2728 285.987 57.2434 285.861L49.6402 250.605C49.6108 250.48 49.6914 250.364 49.8171 250.335C49.9427 250.305 50.0585 250.386 50.0878 250.512L57.691 285.768C57.6949 285.815 57.6949 285.872 57.6693 285.907Z" fill="#BAF8E1"/>
<path d="M54.0299 253.664C54.022 253.683 54.0142 253.703 54.0004 253.709L51.2691 257.112L47.8653 255.007C47.7554 254.94 47.7202 254.801 47.7969 254.695C47.8637 254.585 47.9991 254.56 48.109 254.626L51.1734 256.527L53.6552 253.434C53.7279 253.338 53.8732 253.316 53.9752 253.403C54.0419 253.464 54.0653 253.576 54.0299 253.664Z" fill="#BAF8E1"/>
<path d="M56.6483 258.381C56.6443 258.391 56.6404 258.401 56.6365 258.41L52.8919 264.482L47.1373 261.594C47.0235 261.537 46.9804 261.417 47.0414 261.293C47.0984 261.18 47.228 261.14 47.3418 261.198L52.7256 263.903L56.252 258.176C56.3188 258.067 56.4542 258.041 56.5641 258.108C56.6583 258.157 56.6974 258.287 56.6483 258.381Z" fill="#BAF8E1"/>
<path d="M59.5078 265.678C59.4999 265.697 59.496 265.707 59.4783 265.723L54.5439 272.149L47.5524 269.562C47.4347 269.514 47.372 269.387 47.4192 269.269C47.4526 269.157 47.594 269.089 47.7118 269.136L54.3952 271.611L59.1193 265.453C59.192 265.357 59.3373 265.336 59.4334 265.409C59.5197 265.477 59.5432 265.589 59.5078 265.678Z" fill="#BAF8E1"/>
<path d="M59.9977 273.459C59.9899 273.478 59.9859 273.488 59.9683 273.504L55.9732 278.781L49.2465 276.357C49.1287 276.309 49.066 276.182 49.1132 276.064C49.1506 275.942 49.2881 275.884 49.4058 275.931L55.8146 278.239L59.6132 273.225C59.6859 273.129 59.8312 273.107 59.9273 273.18C60.0136 273.249 60.0469 273.365 59.9977 273.459Z" fill="#BAF8E1"/>
<path d="M58.0855 287.543C58.0855 287.543 54.9239 266.288 86.0718 258.62C87.2137 277.357 67.8372 287.365 58.0855 287.543Z" fill="#0FA37C"/>
<path d="M58.2523 287.553C58.2523 287.553 57.9605 268.599 35.9525 266.425C38.3977 278.418 43.0762 286.433 58.2523 287.553Z" fill="#0FA37C"/>
<path d="M58.2914 287.796C58.2168 287.812 58.1481 287.784 58.0912 287.727C58.003 287.635 57.9953 287.484 58.0876 287.396L84.7748 260.378C84.8671 260.29 85.0183 260.282 85.1065 260.374C85.1948 260.467 85.2025 260.618 85.1102 260.706L58.423 287.724C58.3837 287.765 58.3424 287.783 58.2914 287.796Z" fill="#BAF8E1"/>
<path d="M84.6069 265.994C84.5834 265.996 84.5696 266.001 84.55 265.994L79.9788 265.55L79.8726 261.328C79.8668 261.2 79.9709 261.082 80.1044 261.09C80.232 261.085 80.3497 261.189 80.3417 261.322L80.4366 265.119L84.5916 265.521C84.7212 265.538 84.8153 265.644 84.8073 265.778C84.7935 265.898 84.7051 265.976 84.6069 265.994Z" fill="#BAF8E1"/>
<path d="M81.9527 271.022C81.939 271.028 81.939 271.028 81.9252 271.034L74.4092 271.232L73.6396 264.488C73.624 264.357 73.7007 264.251 73.846 264.23C73.9775 264.214 74.0991 264.308 74.1049 264.436L74.8238 270.737L81.9041 270.547C82.0316 270.541 82.1493 270.646 82.1414 270.779C82.1609 270.901 82.0744 271.003 81.9527 271.022Z" fill="#BAF8E1"/>
<path d="M77.1752 277.739C77.1516 277.741 77.1379 277.747 77.1182 277.739L68.6077 277.094L66.8575 269.445C66.8282 269.319 66.9029 269.19 67.0384 269.164C67.1542 269.131 67.2935 269.21 67.3189 269.345L68.9889 276.654L77.1559 277.276C77.2894 277.284 77.3796 277.4 77.3716 277.533C77.3657 277.633 77.2831 277.725 77.1752 277.739Z" fill="#BAF8E1"/>
<path d="M70.5992 282.664C70.5854 282.67 70.5619 282.672 70.5422 282.664L63.5921 282.189L61.8553 274.876C61.826 274.75 61.9007 274.621 62.0264 274.591C62.1559 274.552 62.2815 274.637 62.3108 274.762L63.9674 281.736L70.5701 282.197C70.7036 282.205 70.7938 282.321 70.7898 282.444C70.7897 282.558 70.7071 282.65 70.5992 282.664Z" fill="#BAF8E1"/>
<path d="M58.1485 287.329C58.0975 287.343 58.0386 287.319 57.9974 287.28L37.5194 268.112C37.4429 268.047 37.443 267.933 37.5138 267.871C37.5747 267.804 37.6924 267.794 37.7552 267.865L58.2292 287.042C58.3057 287.107 58.3056 287.221 58.2349 287.284C58.2133 287.309 58.1858 287.321 58.1485 287.329Z" fill="#BAF8E1"/>
<path d="M41.4599 271.549L38.103 272.025C38.0048 272.042 37.9185 271.973 37.9009 271.875C37.8833 271.777 37.9384 271.697 38.0503 271.673L41.1029 271.246L41.0602 268.427C41.0524 268.333 41.131 268.251 41.2351 268.247C41.3293 268.239 41.4117 268.318 41.4155 268.422L41.4599 271.549Z" fill="#BAF8E1"/>
<path d="M45.7238 275.57L40.1864 275.662C40.0921 275.669 40.0098 275.591 40.0059 275.487C39.9982 275.393 40.0768 275.31 40.1808 275.306L45.3963 275.223L45.7399 270.532C45.7459 270.431 45.8303 270.363 45.9304 270.369C46.0305 270.375 46.0992 270.459 46.0932 270.559L45.7238 275.57Z" fill="#BAF8E1"/>
<path d="M50.17 279.734L43.9273 280.476C43.8331 280.484 43.7468 280.415 43.7292 280.317C43.7215 280.223 43.7902 280.136 43.8884 280.119L49.8778 279.411L50.8836 273.95C50.8993 273.853 50.9936 273.789 51.0898 273.804C51.186 273.82 51.2506 273.914 51.2349 274.011L50.17 279.734Z" fill="#BAF8E1"/>
<path d="M54.02 283.339L48.916 283.911C48.8218 283.919 48.7355 283.85 48.7277 283.756C48.7199 283.662 48.7966 283.556 48.8829 283.568L53.7376 283.021L54.7491 277.8C54.7649 277.704 54.8592 277.639 54.9514 277.665C55.0476 277.681 55.1123 277.775 55.0867 277.867L54.02 283.339Z" fill="#BAF8E1"/>
<path d="M189.354 286.027C189.354 286.027 209.966 280.214 219.522 260.341C229.078 240.458 221.678 225.427 221.678 225.427C221.678 225.427 220.294 235.194 210.992 241.431C201.69 247.667 190.168 266.578 189.354 286.027Z" fill="#066D52"/>
<path d="M187.409 284.378C187.409 284.378 204.184 271.06 205.336 249.031C206.489 227.002 199.576 219 199.576 219C199.576 219 194.703 228.45 188.519 237.805C182.356 247.149 176.764 264.865 187.409 284.378Z" fill="#0FA37C"/>
<path d="M186.32 283.459C186.236 283.533 186.119 283.564 186.003 283.533C185.813 283.49 185.686 283.29 185.739 283.099L199.079 226.706C199.121 226.516 199.322 226.389 199.512 226.442C199.702 226.484 199.829 226.685 199.776 226.875L186.436 283.268C186.415 283.342 186.373 283.406 186.32 283.459Z" fill="#BAF8E1"/>
<path d="M203.317 234.169C203.296 234.19 203.265 234.211 203.243 234.221L196.933 237.276L193.445 231.864C193.339 231.695 193.381 231.473 193.55 231.367C193.719 231.262 193.941 231.304 194.047 231.473L197.187 236.346L202.926 233.577C203.106 233.492 203.317 233.566 203.413 233.746C203.476 233.894 203.434 234.063 203.317 234.169Z" fill="#BAF8E1"/>
<path d="M203.857 242.836C203.846 242.847 203.835 242.858 203.814 242.868L194.185 249.094L187.832 240.923C187.705 240.765 187.726 240.564 187.895 240.416C188.054 240.289 188.276 240.321 188.403 240.479L194.343 248.132L203.413 242.276C203.582 242.17 203.804 242.213 203.909 242.382C204.015 242.519 203.983 242.72 203.857 242.836Z" fill="#BAF8E1"/>
<path d="M202.947 255.373C202.926 255.394 202.905 255.405 202.874 255.415L191.278 261.324L182.927 252.741C182.79 252.593 182.79 252.371 182.938 252.234C183.064 252.086 183.308 252.096 183.445 252.244L191.426 260.447L202.546 254.781C202.726 254.686 202.937 254.76 203.032 254.94C203.117 255.088 203.074 255.267 202.947 255.373Z" fill="#BAF8E1"/>
<path d="M198.296 267.011C198.275 267.032 198.254 267.043 198.222 267.053L188.772 271.947L180.697 263.787C180.559 263.65 180.559 263.417 180.697 263.28C180.834 263.132 181.067 263.142 181.204 263.28L188.899 271.06L197.874 266.419C198.053 266.324 198.265 266.398 198.36 266.578C198.455 266.715 198.423 266.905 198.296 267.011Z" fill="#BAF8E1"/>
<path d="M185.792 286.112C185.792 286.112 195.908 253.1 246.36 263.502C235.071 291.461 200.062 292.592 185.792 286.112Z" fill="#0FA37C"/>
<path d="M186.014 286.249C186.014 286.249 198.688 258.555 168.276 240.194C163.53 259.263 164.777 274.125 186.014 286.249Z" fill="#0FA37C"/>
<path d="M185.908 286.609C185.792 286.577 185.696 286.493 185.654 286.376C185.58 286.175 185.686 285.964 185.887 285.89L243.274 265.151C243.475 265.077 243.686 265.182 243.76 265.383C243.834 265.584 243.728 265.796 243.528 265.87L186.14 286.609C186.066 286.63 185.982 286.63 185.908 286.609Z" fill="#BAF8E1"/>
<path d="M239.141 273.184C239.109 273.174 239.077 273.163 239.046 273.142L232.714 269.337L235.473 263.142C235.557 262.952 235.779 262.857 235.98 262.952C236.17 263.037 236.255 263.259 236.17 263.459L233.686 269.03L239.437 272.487C239.616 272.592 239.68 272.825 239.564 273.005C239.479 273.163 239.299 273.237 239.141 273.184Z" fill="#BAF8E1"/>
<path d="M231.815 278.649C231.794 278.649 231.784 278.639 231.763 278.628L220.727 273.723L224.268 263.417C224.332 263.216 224.522 263.11 224.754 263.184C224.955 263.258 225.061 263.47 224.987 263.671L221.668 273.311L232.059 277.93C232.249 278.015 232.333 278.237 232.249 278.438C232.196 278.617 231.995 278.702 231.815 278.649Z" fill="#BAF8E1"/>
<path d="M220.241 285.087C220.209 285.076 220.188 285.065 220.156 285.055L208.264 278.237L211.023 265.933C211.066 265.732 211.277 265.595 211.478 265.647C211.679 265.679 211.816 265.901 211.763 266.102L209.131 277.856L220.537 284.389C220.716 284.495 220.78 284.727 220.674 284.907C220.59 285.065 220.41 285.139 220.241 285.087Z" fill="#BAF8E1"/>
<path d="M207.313 287.687C207.281 287.676 207.26 287.666 207.229 287.655L197.472 282.148L200.009 270.33C200.051 270.129 200.252 269.992 200.463 270.034C200.675 270.066 200.802 270.277 200.759 270.489L198.339 281.757L207.609 286.989C207.789 287.095 207.852 287.328 207.757 287.507C207.662 287.666 207.472 287.74 207.313 287.687Z" fill="#BAF8E1"/>
<path d="M186.014 285.837C185.929 285.816 185.866 285.753 185.834 285.668L169.397 243.714C169.344 243.566 169.407 243.407 169.555 243.344C169.693 243.291 169.862 243.354 169.925 243.502L186.362 285.457C186.415 285.605 186.352 285.763 186.204 285.827C186.14 285.858 186.077 285.858 186.014 285.837Z" fill="#BAF8E1"/>
<path d="M172.727 251.42L167.536 249.781C167.388 249.739 167.304 249.58 167.357 249.432C167.399 249.284 167.536 249.2 167.706 249.253L172.42 250.743L174.302 246.631C174.365 246.494 174.523 246.42 174.671 246.494C174.809 246.557 174.872 246.726 174.809 246.864L172.727 251.42Z" fill="#BAF8E1"/>
<path d="M176.13 260.204L168.033 256.504C167.896 256.441 167.832 256.271 167.896 256.134C167.959 255.997 168.118 255.933 168.266 255.997L175.887 259.485L179.618 252.91C179.692 252.773 179.872 252.73 179.999 252.804C180.136 252.878 180.179 253.047 180.105 253.185L176.13 260.204Z" fill="#BAF8E1"/>
<path d="M179.703 269.326L170.126 266.091C169.978 266.039 169.904 265.88 169.946 265.732C169.999 265.584 170.158 265.51 170.306 265.552L179.481 268.66L184.724 261.43C184.819 261.303 184.988 261.282 185.115 261.366C185.242 261.462 185.274 261.631 185.179 261.758L179.703 269.326Z" fill="#BAF8E1"/>
<path d="M182.79 277.212L174.978 274.516C174.83 274.463 174.756 274.305 174.809 274.157C174.862 274.009 175.041 273.914 175.168 273.988L182.589 276.546L187.663 269.675C187.758 269.548 187.937 269.527 188.054 269.611C188.181 269.707 188.202 269.876 188.117 270.003L182.79 277.212Z" fill="#BAF8E1"/>
<defs>
<linearGradient id="paint0_linear" x1="111.948" y1="264.349" x2="109.389" y2="286.859" gradientUnits="userSpaceOnUse">
<stop stop-color="#F9B776"/>
<stop offset="1" stop-color="#F47960"/>
</linearGradient>
<linearGradient id="paint1_linear" x1="156.068" y1="274.85" x2="110.042" y2="311.27" gradientUnits="userSpaceOnUse">
<stop stop-color="#4A1801"/>
<stop offset="1" stop-color="#3840F7"/>
</linearGradient>
<linearGradient id="paint2_linear" x1="139.325" y1="267.228" x2="136.93" y2="288.285" gradientUnits="userSpaceOnUse">
<stop stop-color="#F9B776"/>
<stop offset="1" stop-color="#F47960"/>
</linearGradient>
<linearGradient id="paint3_linear" x1="201.716" y1="117.765" x2="180.356" y2="135.035" gradientUnits="userSpaceOnUse">
<stop stop-color="#F9B776"/>
<stop offset="1" stop-color="#F47960"/>
</linearGradient>
</defs>
</svg>
