<svg width="334" height="334" viewBox="0 0 334 334" fill="none" xmlns="http://www.w3.org/2000/svg">
<rect width="334" height="334" fill="white"/>
<path d="M257.682 296.155C257.682 299.38 236.265 302 209.859 302C183.453 302 162.035 299.38 162.035 296.155C162.035 292.93 183.453 290.31 209.859 290.31C236.265 290.31 257.682 292.93 257.682 296.155Z" fill="#F7F7FE"/>
<path d="M285.314 296.155C285.314 298.207 282.22 299.875 278.406 299.875C274.592 299.875 271.498 298.207 271.498 296.155C271.498 294.103 274.592 292.435 278.406 292.435C282.22 292.435 285.314 294.103 285.314 296.155Z" fill="#F7F7FE"/>
<path d="M108.463 70.459C113.606 73.079 118.445 76.1829 122.793 79.5287C144.444 96.175 160.199 121.532 188.079 128.922C229.66 139.941 306.711 130.809 322.659 182.711C326.461 195.071 325.093 208.904 318.947 220.31C300.669 254.239 249.5 265.721 214.106 268.251C172.953 271.189 130.819 262.044 95.1829 241.388C44.449 211.973 7.68607 154.976 32.455 96.6451C45.9491 64.8457 77.3268 54.5938 108.463 70.459Z" fill="#C6E8E9"/>
<path d="M77.609 182.274C77.609 182.274 107.216 185.225 122.265 203.569C122.265 203.569 138.15 182.274 166.626 182.717C174.888 172.733 179.855 159.946 179.855 145.979C179.855 114.159 154.085 88.3882 122.314 88.3882C90.4944 88.3882 64.7238 114.159 64.7238 145.929C64.7238 159.7 69.5435 172.389 77.6583 182.274H77.609Z" fill="#066D52"/>
<path d="M123.596 281.167L120.814 93.0057L120.133 281.167H123.596Z" fill="#302F38"/>
<path d="M122.757 198.012C122.757 198.012 132.74 180.012 150.741 174.503C150.741 174.503 131.757 178.979 122.265 194.52L122.757 198.012Z" fill="#302F38"/>
<path d="M122.757 147.011C122.757 147.011 132.74 129.011 150.741 123.503C150.741 123.503 131.757 128.027 122.265 143.519L122.757 147.011Z" fill="#302F38"/>
<path d="M122.757 172.487C122.757 172.487 132.74 154.487 150.741 148.979C150.741 148.979 131.757 153.455 122.265 168.996L122.757 172.487Z" fill="#302F38"/>
<path d="M121.281 159.995C121.281 159.995 111.642 141.995 94.2813 136.487C94.2813 136.487 112.626 140.962 121.773 156.503L121.281 159.995Z" fill="#302F38"/>
<path d="M121.281 184.979C121.281 184.979 111.642 166.978 94.2813 161.47C94.2813 161.47 112.626 165.946 121.773 181.487L121.281 184.979Z" fill="#302F38"/>
<path d="M54.5128 217.002C54.5128 217.002 76.1417 219.158 87.1357 232.559C87.1357 232.559 98.7406 217.002 119.543 217.326C125.579 210.032 129.208 200.691 129.208 190.487C129.208 167.241 110.381 148.415 87.1717 148.415C63.9261 148.415 45.0996 167.241 45.0996 190.451C45.0996 200.511 48.6206 209.781 54.5488 217.002H54.5128Z" fill="#0FA37C"/>
<path d="M88.1082 289.247L86.076 151.788L85.5783 289.247H88.1082Z" fill="#302F38"/>
<path d="M87.495 228.499C87.495 228.499 94.7885 215.349 107.938 211.326C107.938 211.326 94.0699 214.595 87.1357 225.948L87.495 228.499Z" fill="#302F38"/>
<path d="M87.495 191.241C87.495 191.241 94.7885 178.092 107.938 174.068C107.938 174.068 94.0699 177.373 87.1357 188.69L87.495 191.241Z" fill="#302F38"/>
<path d="M87.495 209.853C87.495 209.853 94.7885 196.703 107.938 192.679C107.938 192.679 94.0699 195.948 87.1357 207.302L87.495 209.853Z" fill="#302F38"/>
<path d="M86.4172 200.727C86.4172 200.727 79.3753 187.577 66.6926 183.553C66.6926 183.553 80.0939 186.822 86.7765 198.176L86.4172 200.727Z" fill="#302F38"/>
<path d="M86.4172 218.978C86.4172 218.978 79.3753 205.828 66.6926 201.804C66.6926 201.804 80.0939 205.074 86.7765 216.427L86.4172 218.978Z" fill="#302F38"/>
<path d="M139.968 72.6722C134.084 69.4609 131.412 72.1335 129.278 69.4609C127.144 66.7883 135.162 59.8374 119.126 52.8865C119.126 52.8865 118.059 37.9178 96.1395 37.3896C74.22 36.8615 80.1039 52.3583 74.2199 56.1084C68.336 59.848 66.7409 53.9746 60.8569 57.7141C54.973 61.4536 57.6456 68.9433 52.8391 70.0102C48.0327 71.0771 41.61 65.2037 35.7366 68.9433C29.8526 72.6828 29.8526 75.8941 27.18 75.8941C24.5074 75.8941 19.1622 73.7603 15.9509 75.8941C12.7395 78.028 9 80.7006 9 80.7006H144.236C144.246 80.69 145.852 75.8836 139.968 72.6722Z" stroke="#302F38" stroke-width="0.610888" stroke-miterlimit="10" stroke-linecap="round" stroke-linejoin="round"/>
<path d="M59.9696 70.475C59.3358 70.8448 58.554 71.2145 57.5822 71.6053" stroke="#302F38" stroke-width="0.610888" stroke-miterlimit="10" stroke-linecap="round" stroke-linejoin="round"/>
<path d="M88.9034 45.5131C88.9034 45.5131 84.6674 47.1399 83.685 52.0414C82.7025 56.9324 80.4208 60.1965 77.8116 60.524C75.2023 60.8515 65.4204 59.8691 63.783 63.4607C63.2126 64.7178 63.0753 65.7847 62.8746 66.7354" stroke="#302F38" stroke-width="0.610888" stroke-miterlimit="10" stroke-linecap="round" stroke-linejoin="round"/>
<path d="M282.773 138.628C277.778 135.902 275.51 138.171 273.698 135.902C271.887 133.634 278.693 127.733 265.081 121.833C265.081 121.833 264.175 109.127 245.569 108.678C226.962 108.221 231.957 121.385 226.962 124.559C221.968 127.733 220.614 122.748 215.619 125.922C210.624 129.096 212.893 135.454 208.813 136.36C204.733 137.265 199.281 132.28 194.296 135.454C189.301 138.628 189.301 141.354 187.032 141.354C184.764 141.354 180.226 139.543 177.5 141.354C174.774 143.166 171.6 145.434 171.6 145.434H286.396C286.405 145.434 287.768 141.354 282.773 138.628Z" stroke="#302F38" stroke-width="0.610888" stroke-miterlimit="10" stroke-linecap="round" stroke-linejoin="round"/>
<path d="M214.866 136.763C214.328 137.077 213.664 137.391 212.839 137.722" stroke="#302F38" stroke-width="0.610888" stroke-miterlimit="10" stroke-linecap="round" stroke-linejoin="round"/>
<path d="M239.426 115.565C239.426 115.565 235.831 116.946 234.997 121.107C234.163 125.258 232.226 128.029 230.011 128.307C227.796 128.585 219.493 127.751 218.103 130.8C217.619 131.867 217.502 132.773 217.332 133.58" stroke="#302F38" stroke-width="0.610888" stroke-miterlimit="10" stroke-linecap="round" stroke-linejoin="round"/>
<path d="M306.681 91.7902C304.433 90.5624 303.413 91.5829 302.6 90.5624C301.786 89.542 304.848 86.8872 298.717 84.2324C298.717 84.2324 298.31 78.5162 289.931 78.3089C281.56 78.1016 283.801 84.0251 281.56 85.4601C279.312 86.8872 278.698 84.6469 276.45 86.074C274.202 87.501 275.222 90.3631 273.389 90.7697C271.547 91.1763 269.1 88.9281 266.851 90.3631C264.603 91.7902 264.603 93.0179 263.583 93.0179C262.562 93.0179 260.521 92.2047 259.294 93.0179C258.066 93.8311 256.639 94.8595 256.639 94.8595H308.316C308.316 94.8516 308.93 93.0179 306.681 91.7902Z" stroke="#302F38" stroke-width="0.610888" stroke-miterlimit="10" stroke-linecap="round" stroke-linejoin="round"/>
<path d="M276.107 90.953C275.868 91.0965 275.565 91.232 275.198 91.3835" stroke="#302F38" stroke-width="0.610888" stroke-miterlimit="10" stroke-linecap="round" stroke-linejoin="round"/>
<path d="M287.165 81.41C287.165 81.41 285.547 82.0319 285.172 83.9054C284.797 85.7789 283.928 87.0226 282.932 87.1501C281.935 87.2777 278.196 86.903 277.574 88.2742C277.359 88.7526 277.303 89.1592 277.223 89.5259" stroke="#302F38" stroke-width="0.610888" stroke-miterlimit="10" stroke-linecap="round" stroke-linejoin="round"/>
<path d="M74.9838 243.22C72.7356 241.992 71.7151 243.013 70.9019 241.992C70.0887 240.972 73.1501 238.317 67.0194 235.662C67.0194 235.662 66.6128 229.946 58.2338 229.739C49.8628 229.531 52.1031 235.455 49.8628 236.89C47.6146 238.317 47.0007 236.077 44.7525 237.504C42.5043 238.931 43.5248 241.793 41.6911 242.199C39.8495 242.606 37.402 240.358 35.1538 241.793C32.9056 243.22 32.9056 244.448 31.8851 244.448C30.8647 244.448 28.8237 243.634 27.596 244.448C26.3682 245.261 24.9412 246.289 24.9412 246.289H76.6181C76.6181 246.281 77.232 244.448 74.9838 243.22Z" stroke="#302F38" stroke-width="0.610888" stroke-miterlimit="10" stroke-linecap="round" stroke-linejoin="round"/>
<path d="M44.4097 242.383C44.1706 242.526 43.8676 242.662 43.5009 242.813" stroke="#302F38" stroke-width="0.610888" stroke-miterlimit="10" stroke-linecap="round" stroke-linejoin="round"/>
<path d="M55.4674 232.84C55.4674 232.84 53.849 233.462 53.4743 235.335C53.0996 237.209 52.2306 238.452 51.2341 238.58C50.2376 238.707 46.4985 238.333 45.8767 239.704C45.6614 240.182 45.6056 240.589 45.5259 240.956" stroke="#302F38" stroke-width="0.610888" stroke-miterlimit="10" stroke-linecap="round" stroke-linejoin="round"/>
<path d="M144.49 294.825C141.033 285.05 131.708 278.04 120.751 278.04C109.787 278.04 100.468 285.05 97.012 294.825H144.49Z" fill="#066D52"/>
<path d="M120.938 294.825C120.371 281.42 109.331 270.726 95.7884 270.726C82.246 270.726 71.1992 281.42 70.6392 294.825H120.938Z" fill="#0FA37C"/>
<path d="M277.739 153.2H265.545C264.653 153.2 263.92 152.467 263.92 151.575C263.92 150.683 264.653 149.951 265.545 149.951H277.739C278.631 149.951 279.364 150.683 279.364 151.575C279.364 152.467 278.631 153.2 277.739 153.2Z" fill="#4A1801"/>
<path d="M278.092 70.5972C289.026 70.5972 297.89 61.7331 297.89 50.7986C297.89 39.8641 289.026 31 278.092 31C267.157 31 258.293 39.8641 258.293 50.7986C258.293 61.7331 267.157 70.5972 278.092 70.5972Z" fill="#FFEAA0"/>
<path d="M227.538 272.938C226.978 276.768 228.879 280.881 232.045 282.679C234.188 283.895 236.69 284.075 239.02 284.787C243.569 286.163 247.53 289.688 249.68 294.258H218.89V272.648L227.538 272.938Z" fill="#914B29"/>
<path d="M239.027 284.78C236.697 284.075 234.195 283.895 232.052 282.679C230.22 281.635 228.81 279.817 228.056 277.729C227.441 278.676 226.853 279.644 226.196 280.556C225.56 281.441 224.848 282.298 223.964 282.9C223.072 283.501 222.049 283.722 221.019 283.522C220.258 283.37 219.546 283.017 218.89 282.561V294.251H249.68C247.537 289.681 243.576 286.156 239.027 284.78Z" fill="#914B29"/>
<path d="M248.919 296.027H219.076C218.184 296.027 217.459 295.302 217.459 294.41V294.272C217.459 293.38 218.184 292.654 219.076 292.654H248.919C249.811 292.654 250.537 293.38 250.537 294.272V294.41C250.537 295.302 249.811 296.027 248.919 296.027Z" fill="#4A1801"/>
<path d="M226.722 284.199C226.397 283.847 226.397 283.28 226.722 282.927L231.402 277.846C231.727 277.494 232.252 277.494 232.57 277.846C232.895 278.199 232.895 278.766 232.57 279.118L227.89 284.199C227.572 284.552 227.047 284.552 226.722 284.199Z" fill="#4A1801"/>
<path d="M229.757 286.522C229.432 286.17 229.432 285.603 229.757 285.25L234.437 280.169C234.762 279.817 235.287 279.817 235.605 280.169C235.93 280.522 235.93 281.089 235.605 281.441L230.925 286.522C230.6 286.868 230.075 286.868 229.757 286.522Z" fill="#4A1801"/>
<path d="M218.841 284.946C218.841 284.946 226.376 282.437 223.362 269.876" stroke="#4A1801" stroke-width="1.73727" stroke-miterlimit="10" stroke-linecap="round" stroke-linejoin="round"/>
<path d="M193.333 271.708C193.892 275.538 191.991 279.651 188.825 281.448C186.682 282.665 184.18 282.844 181.85 283.55C177.301 284.925 173.34 288.451 171.19 293.02H201.981V271.411L193.333 271.708Z" fill="#914B29"/>
<path d="M181.85 283.55C184.18 282.844 186.682 282.665 188.825 281.448C190.657 280.404 192.067 278.586 192.821 276.498C193.436 277.445 194.024 278.413 194.681 279.326C195.316 280.211 196.029 281.068 196.913 281.669C197.805 282.271 198.828 282.492 199.858 282.291C200.619 282.139 201.331 281.787 201.987 281.331V293.02H171.197C173.34 288.451 177.301 284.925 181.85 283.55Z" fill="#914B29"/>
<path d="M171.951 294.797H201.794C202.686 294.797 203.411 294.071 203.411 293.179V293.041C203.411 292.149 202.686 291.423 201.794 291.423H171.951C171.059 291.423 170.333 292.149 170.333 293.041V293.179C170.34 294.071 171.066 294.797 171.951 294.797Z" fill="#4A1801"/>
<path d="M194.148 282.969C194.473 282.616 194.473 282.049 194.148 281.697L189.468 276.616C189.143 276.263 188.618 276.263 188.3 276.616C187.975 276.968 187.975 277.535 188.3 277.888L192.98 282.969C193.305 283.321 193.83 283.321 194.148 282.969Z" fill="#4A1801"/>
<path d="M191.12 285.292C191.445 284.939 191.445 284.372 191.12 284.02L186.44 278.939C186.115 278.586 185.59 278.586 185.272 278.939C184.947 279.291 184.947 279.858 185.272 280.211L189.952 285.292C190.27 285.644 190.795 285.644 191.12 285.292Z" fill="#4A1801"/>
<path d="M202.036 283.715C202.036 283.715 194.501 281.206 197.515 268.645" stroke="#4A1801" stroke-width="1.73727" stroke-miterlimit="10" stroke-linecap="round" stroke-linejoin="round"/>
<path d="M203.017 183.845L212.633 183.305C220.265 182.877 226.162 176.282 225.733 168.65L224.206 141.51C223.777 133.878 217.182 127.981 209.55 128.41L199.934 128.949C192.302 129.378 186.406 135.973 186.834 143.604L188.362 170.745C188.784 178.383 195.379 184.273 203.017 183.845Z" fill="#84190C"/>
<path d="M218.364 275.51C216.518 264.041 207.234 176.717 207.255 165.09L224.793 153.863C227.164 168.373 227.427 262.355 227.475 275.316L218.364 275.51Z" fill="#84190C"/>
<path d="M190.215 223.691C189.295 210.134 187.615 167.724 187.477 155.35L206.121 161.965C207.027 174.574 204.628 211.144 203.315 223.698H190.215V223.691Z" fill="#84190C"/>
<path d="M205.838 184.667L202.603 276.644L192.067 275.51L188.072 176.669L205.838 184.667Z" fill="#84190C"/>
<path d="M200.743 82.7156C201.061 84.3885 201.241 86.0891 201.289 87.7897C201.358 90.3336 201.033 93.1126 199.257 94.9376C200.356 96.4516 202.029 97.6959 203.84 98.1591C205.651 98.6222 207.628 98.4287 209.322 97.6268C209.785 97.4055 210.221 97.1429 210.663 96.8871C211.202 96.5691 211.742 96.2442 212.281 95.9262C209.944 91.9029 207.953 87.4579 208.575 82.8539C207.407 82.6396 205.762 82.1487 204.594 81.9275C204.089 81.8307 203.577 81.7409 203.066 81.7616C202.25 81.7962 201.552 82.8539 200.743 82.7156Z" fill="#FF8B6B"/>
<path d="M209.764 90.859C210.449 92.608 211.334 94.3016 212.281 95.9262C211.742 96.2442 211.202 96.5691 210.663 96.8871C210.228 97.1498 209.785 97.4125 209.322 97.6268C207.628 98.4287 205.658 98.6222 203.84 98.1591C202.029 97.6959 200.356 96.4516 199.257 94.9376C200.328 93.8385 200.874 92.3868 201.116 90.859H209.764Z" fill="#4A1801"/>
<path d="M228.886 129.896C228.761 132.316 228.581 134.728 228.374 137.141C228.236 138.759 228.091 140.369 227.862 141.973C227.372 144.545 226.77 147.102 226.196 149.66C225.941 150.635 225.685 151.603 225.436 152.578C225.125 153.801 224.862 155.039 224.551 156.269C224.399 156.539 224.212 156.787 224.005 157.016C223.894 157.133 223.784 157.244 223.659 157.347C223.217 157.728 222.609 157.907 222.069 158.101C221.427 158.329 220.777 158.53 220.113 158.702C218.364 159.152 216.574 159.331 214.776 159.477C212.882 159.629 210.981 159.698 209.087 159.719C208.119 159.725 207.144 159.725 206.177 159.705C203.398 159.656 200.626 159.511 197.874 159.345C197.314 159.311 190.083 158.509 187.629 158.225C187.353 158.191 187.138 158.17 187 158.149C186.993 158.149 186.993 158.149 186.986 158.149L186.938 158.142C186.862 158.136 186.82 158.129 186.82 158.122C186.641 155.578 186.267 152.654 185.784 149.536C185.403 147.096 184.954 144.531 184.477 141.932C184.353 141.254 184.221 140.57 184.097 139.885C184.097 139.878 184.09 139.865 184.09 139.858C183.191 135.081 182.21 130.256 181.401 125.901C181.11 124.359 180.841 122.88 180.606 121.476C180.564 121.241 180.53 121.013 180.488 120.785C180.481 120.75 180.474 120.716 180.468 120.681C179.624 115.669 177.702 109.282 178.76 104.229C179.514 100.641 183.164 98.5462 186.399 97.0945C186.426 97.0806 186.461 97.0668 186.489 97.053C186.848 96.894 187.208 96.7419 187.553 96.5898C189.724 95.6704 192.123 95.2072 194.563 94.9998C195.047 94.9584 195.531 94.9238 196.022 94.9031C196.056 94.9031 196.084 94.9031 196.118 94.8961C197.204 94.8478 198.282 94.8339 199.354 94.8547C199.741 94.8616 200.128 94.8685 200.515 94.8823C204.407 94.9929 208.271 95.4284 212.149 95.705C212.765 95.7464 213.387 95.7879 214.002 95.8225C214.486 95.8501 214.949 95.8709 215.405 95.8847C215.516 95.8916 215.634 95.8916 215.744 95.8985C215.793 95.8985 215.841 95.9054 215.882 95.9054C216.021 95.9123 216.152 95.9123 216.29 95.9193C216.525 95.9262 216.753 95.9331 216.982 95.9469C218.15 95.9953 219.221 96.0506 220.217 96.2165C221.378 96.735 222.567 97.1981 223.666 97.841C224.42 98.2835 225.09 98.7881 225.616 99.4725C226.217 100.247 226.611 101.208 226.915 102.127C227.593 104.139 227.904 106.268 228.167 108.356C228.45 110.63 228.734 112.897 228.886 115.186C229.217 120.073 229.141 124.995 228.886 129.896Z" fill="#4A1801"/>
<path d="M211.057 91.7507H200.487C199.706 91.7507 199.063 91.1078 199.063 90.3266C199.063 89.5455 199.706 88.9026 200.487 88.9026H211.057C211.838 88.9026 212.481 89.5455 212.481 90.3266C212.481 91.1147 211.838 91.7507 211.057 91.7507Z" fill="#4A1801"/>
<path d="M180.64 123.536C180.557 122.617 180.481 121.691 180.419 120.764C180.329 120.93 180.246 121.089 180.163 121.255C180.302 121.926 180.461 122.7 180.64 123.536Z" fill="#5A525D"/>
<path d="M184.111 111.978C184.519 109.952 184.56 107.816 184.456 105.777C184.346 103.579 184.062 100.931 182.742 99.0439C180.827 100.323 179.237 101.982 178.767 104.215C178.497 107.74 183.177 109.199 184.111 111.978Z" fill="#5A525D"/>
<path d="M233.427 105.687L247.357 139.906L242.497 135.268L265.095 146.978C267.411 148.181 268.317 151.036 267.114 153.352C266.119 155.274 263.989 156.221 261.971 155.806L237.036 150.718C234.948 150.289 233.324 148.858 232.563 147.033L232.176 146.086L218.247 111.867C216.539 107.678 218.551 102.894 222.747 101.187C226.936 99.4794 231.72 101.491 233.427 105.687Z" fill="#4A1801"/>
<path d="M204.932 70.9221C207.151 71.3991 208.368 73.6942 208.057 75.7473C207.739 77.8005 206.239 79.6047 204.545 81.0565C203.695 78.554 203.093 76.3418 202.243 73.8394C201.925 72.8992 201.704 71.6687 202.616 71.0673C203.128 70.7286 204.331 70.7908 204.932 70.9221Z" fill="#2D201B"/>
<path d="M217.175 79.8674C217.175 80.0057 217.168 80.1439 217.161 80.2753C217.161 80.3237 217.154 80.3721 217.154 80.4205C217.154 80.4481 217.154 80.4758 217.147 80.5034C217.141 80.6209 217.127 80.7384 217.113 80.8491C217.078 81.1256 217.037 81.409 216.975 81.6786C216.961 81.7408 216.947 81.8169 216.933 81.8791C216.788 82.4667 216.588 83.0335 216.325 83.5727C216.27 83.6903 216.207 83.8078 216.145 83.9184C216.111 83.9806 216.083 84.0428 216.048 84.105C215.993 84.2018 215.931 84.2986 215.869 84.4023C215.723 84.6442 215.564 84.8793 215.392 85.1005C215.309 85.2042 215.226 85.3079 215.143 85.4047C214.797 85.8125 214.41 86.1927 213.988 86.5384C213.67 86.7942 213.332 87.0292 212.979 87.2435C212.903 87.2919 212.82 87.3334 212.744 87.3818C212.689 87.4094 212.626 87.444 212.571 87.4716C212.543 87.4855 212.509 87.5062 212.481 87.52C212.447 87.5338 212.419 87.5477 212.391 87.5615C212.295 87.6099 212.205 87.6583 212.108 87.6998C211.548 87.9555 210.947 88.1491 210.317 88.2735C210.179 88.3012 210.041 88.3288 209.91 88.3496C209.605 88.398 209.294 88.4256 208.99 88.4325C207.76 88.4878 206.557 88.2666 205.458 87.8242C203.481 87.0292 201.828 85.5153 200.895 83.5451C200.605 82.9368 200.384 82.28 200.245 81.5887L200.059 80.6486L199.844 79.6047L198.849 74.6896L198.662 73.7702L198.393 72.436L198.296 71.9452L197.791 69.4289C197.764 69.2907 197.736 69.1524 197.715 69.0141C197.708 68.9588 197.701 68.8966 197.688 68.8413C197.688 68.8275 197.681 68.8206 197.681 68.8068C197.674 68.7515 197.667 68.7031 197.667 68.6478C197.66 68.5925 197.653 68.5372 197.653 68.4818C197.646 68.468 197.646 68.4542 197.646 68.4404C197.639 68.4058 197.639 68.3782 197.639 68.3436C197.632 68.3021 197.632 68.2606 197.632 68.2192C197.632 68.1915 197.625 68.1708 197.625 68.1431C197.618 68.0878 197.618 68.0256 197.618 67.9703V67.7353C197.618 67.6177 197.618 67.5071 197.625 67.3896C197.625 67.3274 197.632 67.2583 197.632 67.196C197.639 67.1338 197.639 67.0785 197.646 67.0163C197.653 66.961 197.66 66.8988 197.66 66.8435C197.667 66.8435 197.66 66.8435 197.667 66.8366C197.674 66.7813 197.681 66.7191 197.688 66.6638C197.695 66.6084 197.701 66.5462 197.715 66.4909C197.722 66.4356 197.729 66.3734 197.743 66.3181C197.764 66.2006 197.784 66.0831 197.812 65.9655C197.819 65.9448 197.819 65.9172 197.826 65.9033C197.854 65.8066 197.874 65.7098 197.902 65.613C197.909 65.5922 197.909 65.5646 197.916 65.5508C197.943 65.454 197.971 65.3572 197.999 65.2535C198.006 65.2397 198.006 65.219 198.013 65.2051C198.925 62.3224 201.324 60.0066 204.476 59.3637C207.912 58.6724 211.299 60.1656 213.193 62.8686C213.255 62.9584 213.318 63.0483 213.373 63.1382C213.933 64.0023 214.341 64.9839 214.555 66.0485L215.73 71.8415L217.016 78.2083C217.044 78.3535 217.071 78.4918 217.092 78.63C217.106 78.7268 217.12 78.8167 217.127 78.9065C217.134 78.9549 217.141 79.0033 217.141 79.0448C217.147 79.0724 217.147 79.107 217.147 79.1346C217.154 79.2245 217.161 79.3075 217.168 79.4043C217.168 79.4319 217.175 79.4596 217.175 79.4803C217.168 79.6047 217.175 79.7361 217.175 79.8674Z" fill="#FF8B6B"/>
<path d="M217.154 79.3974C217.147 79.3075 217.141 79.2177 217.134 79.1278C217.134 79.1001 217.127 79.0725 217.127 79.0379C217.12 78.9895 217.12 78.9411 217.113 78.8997C217.099 78.8098 217.092 78.713 217.078 78.6231C217.058 78.4849 217.03 78.3397 217.002 78.2015L216.698 76.7152C214.099 72.837 208.907 74.669 205.651 76.729C205.589 76.7705 205.527 76.7912 205.465 76.805C205.458 76.812 205.444 76.8258 205.437 76.8327C205.188 77.1092 204.635 77.0608 204.469 76.7083C203.204 74.0122 200.999 72.7748 198.379 72.443L198.648 73.7703L199.831 79.5979L200.232 81.5819C200.819 84.506 202.858 86.7804 205.444 87.8242C206.82 88.3773 208.347 88.5777 209.896 88.3427C210.034 88.322 210.172 88.2943 210.311 88.2667C210.94 88.1422 211.541 87.9487 212.101 87.6929C212.198 87.6514 212.288 87.603 212.384 87.5615C212.412 87.5477 212.44 87.5339 212.474 87.5201C212.509 87.5062 212.537 87.4855 212.571 87.4717C212.626 87.444 212.682 87.4095 212.744 87.3818C212.82 87.3403 212.903 87.2919 212.979 87.2435C213.332 87.0292 213.67 86.7942 213.988 86.5384C214.41 86.1997 214.797 85.8195 215.143 85.4047C215.226 85.301 215.309 85.2042 215.392 85.0936C215.564 84.8724 215.723 84.6374 215.875 84.3954C215.938 84.2986 215.993 84.1949 216.055 84.0982C216.09 84.036 216.124 83.9737 216.159 83.9115C216.221 83.8009 216.276 83.6834 216.339 83.5659C216.601 83.0267 216.802 82.4529 216.947 81.8653C216.961 81.8031 216.975 81.734 216.988 81.6717C217.051 81.3952 217.092 81.1187 217.127 80.8422C217.141 80.7247 217.154 80.6141 217.161 80.4965C217.161 80.4689 217.168 80.4412 217.168 80.4067C217.168 80.3583 217.175 80.3099 217.175 80.2615C217.182 80.1232 217.182 79.985 217.182 79.8536C217.182 79.7223 217.175 79.5979 217.175 79.4665C217.161 79.4527 217.154 79.425 217.154 79.3974Z" fill="#4A1801"/>
<path d="M174.17 102.722C168.937 109.593 163.842 116.568 162.971 125.43C162.141 133.892 163.572 145.727 171.737 150.476C177.398 153.773 187.456 152.287 193.657 151.064C197.1 150.386 201.033 149.211 202.188 145.83C203.349 142.422 200.812 138.461 197.556 136.788C194.307 135.115 190.526 135.917 187.021 135.088C183.35 134.224 177.986 133 177.986 133C176.341 132.793 180.703 121.642 181.221 120.55C183.599 115.573 186.641 110.499 186.537 104.65C186.503 102.659 185.576 100.074 183.855 98.8987C180.855 96.8594 176.493 99.6729 174.17 102.722Z" fill="#4A1801"/>
<path d="M230.987 165.615L230.005 104.692C230.005 104.692 227.379 96.9147 218.966 95.7602L218.959 95.7188H218.62C217.528 95.5943 216.346 95.5805 215.06 95.7049L212.156 95.6911L210.428 125.472L199.354 94.8408L196.326 94.9307C196.326 94.9169 196.333 94.8961 196.333 94.8823C196.229 94.8892 196.125 94.8892 196.022 94.8892C195.538 94.9099 195.047 94.9445 194.563 94.986C192.123 95.2003 189.724 95.6635 187.553 96.576C187.208 96.7211 186.855 96.8732 186.489 97.0391C186.461 97.053 186.426 97.0668 186.399 97.0806C185.466 97.5023 184.498 97.9724 183.571 98.5185C184.788 100.288 185.168 102.625 185.362 104.706C185.625 107.574 185.576 110.72 184.747 113.499C183.848 116.527 182.134 119.202 180.018 121.587C180.661 124.525 181.207 127.484 181.684 130.449C184.041 141.344 185.286 152.467 185.929 163.617C185.998 164.758 186.067 165.892 186.129 167.032C191.971 165.615 210.712 167.841 213.249 165.719L230.987 165.615Z" fill="#FFBE17"/>
<path d="M207.905 78.9203C208.133 80.5311 209.523 81.7754 211.195 81.7754C212.875 81.7754 214.258 80.5311 214.486 78.9203H207.905Z" fill="#FFF8F3"/>
<path d="M196.63 104.761C193.498 104.761 190.941 102.203 190.941 99.0715V97.0391C190.941 93.9076 193.498 91.3498 196.63 91.3498C199.761 91.3498 202.319 93.9076 202.319 97.0391V99.0715C202.319 102.196 199.761 104.761 196.63 104.761Z" fill="#FFBE17"/>
<path d="M216.546 103.745C213.415 103.745 210.857 101.187 210.857 98.0553V96.0229C210.857 92.8914 213.415 90.3336 216.546 90.3336C219.678 90.3336 222.235 92.8914 222.235 96.0229V98.0553C222.235 101.18 219.678 103.745 216.546 103.745Z" fill="#FFBE17"/>
<path d="M228.436 167.357H187.588C184.85 167.357 182.611 165.118 182.611 162.38C182.611 159.642 184.85 157.403 187.588 157.403H228.436C231.174 157.403 233.414 159.642 233.414 162.38C233.414 165.118 231.174 167.357 228.436 167.357Z" fill="#FFBE17"/>
<path d="M201.711 101.712L210.421 125.472L210.649 167.565" stroke="#FFF8F3" stroke-width="1.24979" stroke-miterlimit="10" stroke-linecap="round" stroke-linejoin="round"/>
<path d="M211.873 101.104L210.421 125.472" stroke="#FFF8F3" stroke-width="1.24979" stroke-miterlimit="10" stroke-linecap="round" stroke-linejoin="round"/>
<path d="M210.649 128.949C210.089 128.949 209.633 128.493 209.633 127.933V124.276C209.633 123.716 210.089 123.26 210.649 123.26C211.209 123.26 211.666 123.716 211.666 124.276V127.933C211.666 128.486 211.209 128.949 210.649 128.949Z" fill="#FFF8F3"/>
<path d="M185.362 104.713H202.07" stroke="#EE8F00" stroke-width="1.17412" stroke-miterlimit="10" stroke-linecap="round" stroke-linejoin="round" stroke-dasharray="4.27 4.27"/>
<path d="M183.724 116.388H204.939" stroke="#EE8F00" stroke-width="1.17412" stroke-miterlimit="10" stroke-linecap="round" stroke-linejoin="round" stroke-dasharray="4.27 4.27"/>
<path d="M182.085 130.117H230.137" stroke="#EE8F00" stroke-width="1.17412" stroke-miterlimit="10" stroke-linecap="round" stroke-linejoin="round" stroke-dasharray="4.27 4.27"/>
<path d="M183.724 143.846H230.344" stroke="#EE8F00" stroke-width="1.15648" stroke-miterlimit="10" stroke-linecap="round" stroke-linejoin="round" stroke-dasharray="4.21 4.21"/>
<path d="M185.161 155.115H230.344" stroke="#EE8F00" stroke-width="1.13852" stroke-miterlimit="10" stroke-linecap="round" stroke-linejoin="round" stroke-dasharray="4.14 4.14"/>
<path d="M212.723 104.471H229.999" stroke="#EE8F00" stroke-width="1.17412" stroke-miterlimit="10" stroke-linecap="round" stroke-linejoin="round" stroke-dasharray="4.27 4.27"/>
<path d="M212.315 116.769H228.892" stroke="#EE8F00" stroke-width="1.17412" stroke-miterlimit="10" stroke-linecap="round" stroke-linejoin="round" stroke-dasharray="4.27 4.27"/>
<path d="M243.306 41.7288C242.801 39.5374 240.88 37.5534 238.633 37.6018C237.624 37.6226 236.663 38.0304 235.771 38.5005C230.752 41.0928 226.915 45.4825 223.494 49.9829C220.141 54.3933 217.03 59.0526 212.944 62.7925C214.057 64.023 214.583 65.7996 214.79 67.5002C225.782 64.659 237.693 58.6516 242.283 48.2823C243.188 46.2291 243.817 43.9271 243.306 41.7288Z" fill="#066D52"/>
<path d="M213.179 62.8686C212.322 63.9608 211.071 64.742 209.827 65.3918C206.066 67.355 201.905 68.5372 197.674 68.8482C197.674 68.8344 197.667 68.8275 197.667 68.8137C197.66 68.7584 197.653 68.71 197.653 68.6547C197.646 68.5994 197.639 68.5441 197.639 68.4888C197.632 68.4749 197.632 68.4611 197.632 68.4473C197.625 68.4127 197.625 68.3851 197.625 68.3505C197.619 68.309 197.618 68.2676 197.618 68.2261C197.618 68.1984 197.612 68.1777 197.612 68.15C197.605 68.0947 197.605 68.0325 197.605 67.9772V67.7422C197.605 67.6247 197.605 67.514 197.612 67.3965C197.612 67.3343 197.618 67.2652 197.618 67.203C197.625 67.1407 197.625 67.0854 197.632 67.0232C197.639 66.9679 197.646 66.9057 197.646 66.8504C197.653 66.8504 197.646 66.8504 197.653 66.8435C197.66 66.7882 197.667 66.726 197.674 66.6707C197.681 66.6154 197.688 66.5531 197.701 66.4978C197.708 66.4425 197.715 66.3803 197.729 66.325C197.75 66.2075 197.771 66.09 197.798 65.9725C197.805 65.9517 197.805 65.9241 197.812 65.9102C197.84 65.8135 197.86 65.7167 197.888 65.6199C197.895 65.5992 197.895 65.5715 197.902 65.5577C197.93 65.4609 197.957 65.3641 197.985 65.2604C197.992 65.2466 197.992 65.2259 197.999 65.212C198.911 62.3294 201.31 60.0135 204.462 59.3706C207.898 58.6655 211.285 60.1587 213.179 62.8686Z" fill="#066D52"/>
<path d="M209.115 74.6274H206.349C205.098 74.6274 204.082 73.6043 204.082 72.36V69.8921C204.082 69.6501 204.283 69.4565 204.518 69.4565H209.115C210.366 69.4565 211.382 70.4797 211.382 71.724V72.36C211.382 73.6043 210.359 74.6274 209.115 74.6274Z" fill="#4A1801"/>
<path d="M215.074 74.4754H217.071C218.364 74.4754 219.422 73.4177 219.422 72.125V70.4036C219.422 70.0373 219.118 69.7331 218.751 69.7331H215.074C213.781 69.7331 212.723 70.7908 212.723 72.0835V72.125C212.716 73.4108 213.774 74.4754 215.074 74.4754Z" fill="#4A1801"/>
<path d="M219 70.3345H204.442C203.992 70.3345 203.619 69.9612 203.619 69.5119C203.619 69.0626 203.992 68.6893 204.442 68.6893H219C219.449 68.6893 219.823 69.0626 219.823 69.5119C219.823 69.9612 219.456 70.3345 219 70.3345Z" fill="#4A1801"/>
<path d="M208.61 65.8757C209.446 67.2029 210.94 68.0947 212.502 68.2053C214.071 68.3159 215.668 67.6385 216.684 66.4356C219.138 67.2997 222.076 66.6153 223.888 64.7489C224.282 64.341 224.627 63.8847 224.828 63.3524C225.049 62.7718 225.09 62.1289 225.063 61.5067C224.994 60.0273 224.565 58.5411 223.653 57.3728C222.74 56.2114 221.309 55.4095 219.83 55.4441C217.452 60.1172 213.408 63.8087 208.61 65.8757Z" fill="#4A1801"/>
<path d="M207.38 66.3388C207.829 67.8389 209.675 68.5786 211.209 68.2606C212.744 67.9426 213.995 66.8365 215.025 65.6475C217.618 62.6611 219.311 58.9074 219.823 54.9809C216.449 59.2669 212.08 63.5806 207.38 66.3388Z" fill="#066D52"/>
<path d="M201.635 67.8666C201.6 67.8459 201.635 67.7906 201.676 67.7975C201.711 67.8044 201.739 67.8389 201.752 67.8735C202.091 68.4888 202.14 69.2561 201.884 69.9128C201.628 70.5695 201.068 71.0949 200.404 71.3161C201.109 72.0558 201.317 73.231 200.902 74.1643C199.983 73.2172 198.545 73.3002 197.224 73.4038C195.911 73.5075 194.383 73.5006 193.526 72.5052C193.236 72.1664 193.056 71.7378 192.966 71.3023C192.876 70.8737 192.876 70.4106 193.042 70.0027C193.36 69.2215 194.224 68.7791 195.061 68.6754C195.897 68.5648 196.747 68.7169 197.591 68.7445C198.946 68.7791 200.397 68.4335 201.635 67.8666Z" fill="#4A1801"/>
<path d="M233.414 114.515H216.615V125.168H233.414V114.515Z" fill="#FFF8F3"/>
<path d="M225.63 116.969C224.952 116.969 224.399 116.416 224.399 115.739V109.185C224.399 108.508 224.952 107.955 225.63 107.955C226.307 107.955 226.86 108.508 226.86 109.185V115.739C226.86 116.416 226.307 116.969 225.63 116.969Z" fill="#066D52"/>
<path d="M273.356 141.945C273.826 142.906 269.264 145.519 269.264 145.519C269.264 145.519 279.516 147.261 279.398 148.651C279.391 148.706 279.371 148.755 279.343 148.803C279.011 148.921 278.679 149.045 278.354 149.176C276.191 149.391 271.4 148.388 271.4 148.388C271.4 148.388 273.011 148.831 274.774 149.46C273.536 149.702 272.354 150.137 271.22 150.711C270.999 150.628 270.868 150.573 270.868 150.573C270.868 150.573 270.992 150.628 271.2 150.718C269.554 151.554 268.006 152.66 266.533 153.808C263.485 152.55 260.699 151.278 260.699 151.278L262.628 145.464C262.634 145.457 272.561 140.321 273.356 141.945Z" fill="#FF8B6B"/>
<path d="M272.72 152.031C273.059 152.716 272.741 153.594 272.147 154.078C271.552 154.561 270.757 154.72 269.99 154.748C268.275 154.803 266.554 154.243 265.199 153.2C264.28 152.488 263.485 151.361 263.796 150.241C264.059 149.294 265.006 148.727 265.911 148.347C268.061 147.441 272.402 146.204 274.518 147.801C276.336 149.169 275.154 153.352 272.72 152.031Z" fill="#FF8B6B"/>
<path d="M269.271 151.596L243.361 211.019C242.566 212.844 243.043 214.98 244.543 216.287C247.08 218.499 251.048 217.303 251.947 214.061L269.271 151.596Z" stroke="#E54C38" stroke-width="3.14987" stroke-miterlimit="10" stroke-linecap="round" stroke-linejoin="round"/>
<path d="M272.14 151.188L278.493 293.788" stroke="#4A1801" stroke-width="5.03975" stroke-miterlimit="10" stroke-linecap="round" stroke-linejoin="round"/>
<path d="M203.342 69.4013L197.107 73.8877C196.851 74.0675 196.796 74.4269 196.976 74.6827C197.155 74.9385 197.515 74.9938 197.771 74.8141L204.006 70.3276C204.262 70.1479 204.317 69.7884 204.137 69.5326C203.951 69.2768 203.591 69.2146 203.342 69.4013Z" fill="#4A1801"/>
<path d="M194.563 76.6598C194.577 78.4779 196.07 79.9365 197.888 79.9227C199.706 79.9089 201.165 78.4157 201.151 76.5976C201.137 74.7795 199.644 73.3209 197.826 73.3347C196.008 73.3554 194.549 74.8417 194.563 76.6598Z" fill="#FF8B6B"/>
</svg>
