<svg xmlns="http://www.w3.org/2000/svg" width="45" height="45" viewBox="0 0 45 45">
    <defs>
        <clipPath id="clip-path">
            <path id="Rectangle_1352" d="M0 0H45V45H0z" class="cls-1" transform="translate(2172.925 561.258)"/>
        </clipPath>
        <style>
            .cls-1{fill:#000}
        </style>
    </defs>
    <g id="Mask_Group_96" clip-path="url(#clip-path)" transform="translate(-2172.925 -561.258)">
        <g id="bell_1_" transform="rotate(-45 1794.715 -2323.092)">
            <g id="Group_4419">
                <g id="Group_4418">
                    <path id="Path_7179" d="M37.883 5.832a3.417 3.417 0 1 0-5.668-3.464 11.209 11.209 0 0 0-12.582 1.107L8.315 12.994c-.109-.082-.568-.256-.668-.307A5.675 5.675 0 0 0 1 13.719a3.415 3.415 0 0 0 0 4.833l5.721 5.718a5.7 5.7 0 0 0 7.894 7.894l5.719 5.719a3.421 3.421 0 0 0 4.833 0 5.675 5.675 0 0 0 1.033-6.646c-.051-.1-.225-.559-.307-.668l9.517-11.324a11.209 11.209 0 0 0 1.1-12.578 3.394 3.394 0 0 0 1.373-.835zm-28.826 24a3.418 3.418 0 0 1-.668-3.89l4.558 4.558a3.417 3.417 0 0 1-3.89-.672zm14.5 6.444a1.14 1.14 0 0 1-1.611 0L2.613 16.94a1.138 1.138 0 0 1 0-1.611 3.4 3.4 0 0 1 3.987-.62c.134.069.851.625.851.625l16.1 16.1s.556.717.625.851a3.405 3.405 0 0 1-.621 3.987zM33.65 17.8l-9.37 11.142L9.942 14.6 21.08 5.235A8.931 8.931 0 0 1 33.65 17.8zm1.011-13.579a1.139 1.139 0 1 1 1.611 0 1.138 1.138 0 0 1-1.611 0z" class="cls-1"/>
                </g>
            </g>
        </g>
    </g>
</svg>
