<svg xmlns="http://www.w3.org/2000/svg" width="36" height="36" viewBox="0 0 36 36">
    <defs>
        <clipPath id="clip-path">
            <path id="Rectangle_1751" d="M0 0H36V36H0z" class="cls-1" transform="translate(2695 4676)"/>
        </clipPath>
        <style>
            .cls-1{fill:#f6863e;stroke:#f6863e;stroke-width:.3px}
        </style>
    </defs>
    <g id="Mask_Group_171" clip-path="url(#clip-path)" transform="translate(-2695 -4676)">
        <g id="_022-check-out-1" transform="translate(2695.757 4678.974)">
            <path id="Path_8575" d="M31.192 1.786h-3.253V.544a.658.658 0 0 0-1.316 0v1.242H15.51V.544a.658.658 0 1 0-1.316 0v1.242h-3.473a3.586 3.586 0 0 0-3.582 3.583v10.966a.658.658 0 1 0 1.316 0v-4.313h25v14.549a2.269 2.269 0 0 1-2.266 2.266H10.721a2.269 2.269 0 0 1-2.267-2.266v-3.8a.658.658 0 1 0-1.316 0v3.8a3.586 3.586 0 0 0 3.583 3.582h20.471a3.586 3.586 0 0 0 3.582-3.582V5.369a3.586 3.586 0 0 0-3.582-3.582zm-22.737 8.92V5.369A2.269 2.269 0 0 1 10.721 3.1h3.473v1.789a2.12 2.12 0 1 0 1.316 0V3.1h11.113v1.789a2.12 2.12 0 1 0 1.316 0V3.1h3.253a2.269 2.269 0 0 1 2.266 2.266v5.337zm6.4-4.606a.8.8 0 1 1-.8.8.8.8 0 0 1 .8-.8zm12.429 0a.8.8 0 1 1-.8.8.8.8 0 0 1 .8-.8zm0 0" class="cls-1" transform="translate(-.303)"/>
            <path id="Path_8576" d="M2.246 20.9h12.96a.658.658 0 0 0 0-1.316H2.246l2.313-2.313a.658.658 0 1 0-.93-.93L.193 19.777a.658.658 0 0 0 0 .93l3.436 3.436a.658.658 0 0 0 .93-.93zm0 0" class="cls-1" transform="translate(0 -.69)"/>
        </g>
    </g>
</svg>
