<svg xmlns="http://www.w3.org/2000/svg" width="57" height="57" viewBox="0 0 57 57">
    <defs>
        <clipPath id="clip-path">
            <path id="Rectangle_1738" fill="#b1b1b1" d="M0 0H57V57H0z" transform="translate(2610 3622)"/>
        </clipPath>
        <style>
            .cls-3{fill:#be694f}.cls-4{fill:#aa593d}.cls-5{fill:#cbe2ff}.cls-6{fill:#9dc6fb}.cls-7{fill:#f9f6f9}.cls-8{fill:#dddaec}.cls-12{fill:#e8ae4d}.cls-13{fill:#ffe07d}.cls-14{fill:#e28086}.cls-15{fill:#dd636e}.cls-16{fill:#7a402b}
        </style>
    </defs>
    <g id="Mask_Group_161" clip-path="url(#clip-path)" transform="translate(-2610 -3622)">
        <g id="room" transform="translate(2610 3625.55)">
            <path id="Path_8509" d="M13.146 50.742H.617A.617.617 0 0 1 0 50.124v-9.373a.617.617 0 0 1 .617-.617h12.529z" class="cls-3" transform="translate(0 -8.489)"/>
            <path id="Path_8510" d="M62.538 50.742H50.009V40.134h12.529a.617.617 0 0 1 .617.617v9.373a.617.617 0 0 1-.617.617z" class="cls-3" transform="translate(-6.155 -8.489)"/>
            <path id="Path_8511" d="M14.155 50.742V40.134H12.2v.984a2.186 2.186 0 0 1-1.216 1.95A5.055 5.055 0 0 0 8.2 47.584v3.157h5.958z" class="cls-4" transform="translate(-1.009 -8.489)"/>
            <path id="Path_8512" d="M62.076 40.134v10.608h1.947a.617.617 0 0 0 .617-.617v-9.374a.617.617 0 0 0-.617-.617h-1.947z" class="cls-4" transform="translate(-7.64 -8.489)"/>
            <path id="Path_8513" d="M9.618 39.089H4.68v-6.536a.91.91 0 0 1 .91-.91h3.117a.91.91 0 0 1 .91.91z" class="cls-5" transform="translate(-.576 -7.444)"/>
            <path id="Path_8514" d="M8.991 31.642H6.984a.91.91 0 0 1 .91.91v6.536H9.9v-6.535a.91.91 0 0 0-.91-.91z" class="cls-6" transform="translate(-.86 -7.444)"/>
            <path id="Path_8515" d="M59.627 39.089H54.69v-6.536a.91.91 0 0 1 .91-.91h3.117a.91.91 0 0 1 .91.91v6.536z" class="cls-5" transform="translate(-6.731 -7.444)"/>
            <path id="Path_8516" d="M58.935 31.642h-2.468a.91.91 0 0 1 .91.91v6.536h2.469v-6.535a.91.91 0 0 0-.91-.91z" class="cls-6" transform="translate(-6.95 -7.444)"/>
            <path id="Path_8517" d="M49.145 54.385H10.42v-6.19a3.1 3.1 0 0 1 3.1-3.1h32.526a3.1 3.1 0 0 1 3.1 3.1z" class="cls-7" transform="translate(-1.282 -9.1)"/>
            <path id="Path_8518" d="M50.6 45.1h-3.213a3.1 3.1 0 0 1 3.1 3.1v6.19h3.209V48.2a3.1 3.1 0 0 0-3.096-3.1z" class="cls-8" transform="translate(-5.832 -9.1)"/>
            <path id="Path_8519" fill="#a05e48" d="M50.815 60.3H8.012a.59.59 0 0 1-.59-.59v-3.431a.59.59 0 0 1 .59-.59h42.8a.59.59 0 0 1 .59.59v3.435a.59.59 0 0 1-.59.59z" transform="translate(-.913 -10.404)"/>
            <path id="Path_8520" fill="#864831" d="M53.919 55.689V60.3h2.619a.59.59 0 0 0 .59-.59v-3.431a.59.59 0 0 0-.59-.59z" transform="translate(-6.636 -10.403)"/>
            <path id="Path_8521" fill="#eabc6b" d="M45.7 42.9H14.991V31.828a4.551 4.551 0 0 1 4.551-4.551h21.606a4.551 4.551 0 0 1 4.552 4.551z" transform="translate(-1.845 -6.907)"/>
            <path id="Path_8522" d="M44.409 27.277h-2.921a4.551 4.551 0 0 1 4.551 4.551V42.9h2.921V31.828a4.551 4.551 0 0 0-4.551-4.551z" class="cls-12" transform="translate(-5.106 -6.907)"/>
            <g id="Group_7603" transform="translate(17.755 31.144)">
                <path id="Path_8523" d="M28.529 44.414h-8.282v-3.152a1.7 1.7 0 0 1 1.7-1.7h4.883a1.7 1.7 0 0 1 1.7 1.7z" class="cls-13" transform="translate(-20.247 -39.563)"/>
                <path id="Path_8524" d="M43.591 44.414h-8.283v-3.152a1.7 1.7 0 0 1 1.7-1.7h4.884a1.7 1.7 0 0 1 1.7 1.7z" class="cls-13" transform="translate(-22.1 -39.563)"/>
            </g>
            <g id="Group_7604" transform="translate(9.615)">
                <path id="Path_8525" d="M17.736 14.971c.861-.446 1.72-3.165 2.572-3.563v-6.7a.657.657 0 0 0-.658-.658h-8.028a.657.657 0 0 0-.658.658v9.641c.42.008.885 2.289 1.387 2.244a14.534 14.534 0 0 0 5.385-1.622z" class="cls-7" transform="translate(-10.964 -4.048)"/>
            </g>
            <path id="Path_8526" d="M20.48 4.048h-2.771a.657.657 0 0 1 .658.658v10.365c.066-.033.133-.065.2-.1.861-.446 1.72-3.165 2.572-3.563v-6.7a.657.657 0 0 0-.658-.658z" class="cls-8" transform="translate(-2.18 -4.048)"/>
            <path id="Path_8527" d="M35.858 4.048H27.83a.657.657 0 0 0-.658.658v4.57c.751-.226 1.489 1.881 2.209 1.738a14 14 0 0 1 4.275-.251c.846.1 1.814-2.149 2.859-2.091V4.705a.658.658 0 0 0-.658-.658z" class="cls-7" transform="translate(-3.344 -4.048)"/>
            <path id="Path_8528" d="M36.682 4.048h-2.82a.657.657 0 0 1 .658.658v6.057c.837.026 1.791-2.149 2.82-2.092V4.705a.658.658 0 0 0-.658-.658z" class="cls-8" transform="translate(-4.168 -4.048)"/>
            <g id="Group_7605" transform="translate(38.042)">
                <path id="Path_8529" d="M52.067 4.048h-8.028a.657.657 0 0 0-.658.658v4.556c.555.112 1.11 2.54 1.66 2.7a12.837 12.837 0 0 1 5.754 3.38c.634.66 1.282-1.046 1.929-.523V4.705a.658.658 0 0 0-.658-.658z" class="cls-7" transform="translate(-43.381 -4.048)"/>
            </g>
            <path id="Path_8530" d="M52.922 4.048h-2.6a.657.657 0 0 1 .658.658v10q.341.3.666.641c.634.66 1.282-1.046 1.929-.523V4.705a.657.657 0 0 0-.657-.658z" class="cls-8" transform="translate(-6.194 -4.048)"/>
            <path id="Path_8531" d="M52.724 18.375v-2.82a20.938 20.938 0 0 1-1.924-1.771 13.67 13.67 0 0 0-7.414-3.789v8.381a.657.657 0 0 0 .658.658h8.028a.657.657 0 0 0 .652-.659z" class="cls-14" transform="translate(-5.339 -4.78)"/>
            <path id="Path_8532" d="M50.984 13.585v5.232a.657.657 0 0 1-.658.658h2.6a.657.657 0 0 0 .658-.658V16c-1.461-1.182-1.789-1.694-2.6-2.411z" class="cls-15" transform="translate(-6.194 -5.221)"/>
            <path id="Path_8533" d="M33.657 9.079a16.472 16.472 0 0 0-6.485.807v8.368a.657.657 0 0 0 .658.658h8.028a.657.657 0 0 0 .658-.658V9.281c-1.044-.058-2.013-.107-2.858-.2z" class="cls-14" transform="translate(-3.344 -4.658)"/>
            <path id="Path_8534" d="M34.519 9.093v9.171a.657.657 0 0 1-.658.658h2.82a.657.657 0 0 0 .658-.658V9.292c-1.029-.057-1.983-.106-2.82-.2z" class="cls-15" transform="translate(-4.168 -4.669)"/>
            <path id="Path_8535" d="M11.622 19.334h8.028a.657.657 0 0 0 .658-.658v-6.235q-1.278.6-2.572 1.269a14.069 14.069 0 0 1-6.771 1.669v3.3a.658.658 0 0 0 .658.658z" class="cls-14" transform="translate(-1.349 -5.081)"/>
            <path id="Path_8536" d="M18.566 13.711c-.067.035-.133.066-.2.1v4.866a.657.657 0 0 1-.658.658h2.772a.657.657 0 0 0 .658-.658v-6.236q-1.278.597-2.572 1.27z" class="cls-15" transform="translate(-2.18 -5.081)"/>
            <g id="Group_7606" transform="translate(24.45 25.589)">
                <path id="Path_8537" d="M35.122 34.948h-6.38a.86.86 0 0 1 0-1.72h6.38a.86.86 0 1 1 0 1.72z" class="cls-12" transform="translate(-27.881 -33.228)"/>
            </g>
            <g id="Group_7607" transform="translate(4.869 35.136)">
                <path id="Path_8538" d="M8.1 45.835H6.412a.86.86 0 0 1 0-1.72H8.1a.86.86 0 0 1 0 1.72z" class="cls-16" transform="translate(-5.552 -44.115)"/>
            </g>
            <g id="Group_7608" transform="translate(48.723 35.136)">
                <path id="Path_8539" d="M58.109 45.835h-1.687a.86.86 0 1 1 0-1.72h1.688a.86.86 0 1 1 0 1.72z" class="cls-16" transform="translate(-55.561 -44.115)"/>
            </g>
        </g>
    </g>
</svg>
