<svg xmlns="http://www.w3.org/2000/svg" width="36" height="36" viewBox="0 0 36 36">
    <defs>
        <clipPath id="clip-path">
            <path id="Rectangle_1742" d="M0 0H36V36H0z" class="cls-1" transform="translate(2694 4156)"/>
        </clipPath>
        <style>
            .cls-1{fill:#45b3be;stroke:#45b3be;stroke-width:.5px}
        </style>
    </defs>
    <g id="Mask_Group_164" clip-path="url(#clip-path)" transform="translate(-2694 -4156)">
        <g id="_021-money-bag-3" transform="translate(2696.093 4156.511)">
            <g id="Group_7649" transform="translate(11.613 13.822)">
                <g id="Group_7648">
                    <path id="Path_8545" d="M20.608 21.558a2.755 2.755 0 0 0-.791-.891 5.593 5.593 0 0 0-1.828-.809l-.065-.017v-4.047a2.881 2.881 0 0 1 1.249.512 1.643 1.643 0 0 1 .486.594 1.729 1.729 0 0 1 .161.755.57.57 0 1 0 1.139 0 2.893 2.893 0 0 0-.273-1.247 2.94 2.94 0 0 0-1.4-1.368 4.692 4.692 0 0 0-1.36-.4v-.6a.61.61 0 1 0-1.22 0v.533a3.712 3.712 0 0 0-2.606 1.018 2.971 2.971 0 0 0-.839 2.064 2.646 2.646 0 0 0 .366 1.4 2.6 2.6 0 0 0 .8.81 6.164 6.164 0 0 0 1.811.723c.154.04.309.079.464.117v4.283a2.8 2.8 0 0 1-1.685-.57 1.727 1.727 0 0 1-.619-1.365.57.57 0 1 0-1.139 0 2.879 2.879 0 0 0 1.022 2.236 3.929 3.929 0 0 0 2.422.848v.534a.61.61 0 1 0 1.221 0v-.59a4.349 4.349 0 0 0 1.756-.576 2.646 2.646 0 0 0 .94-.991 3.331 3.331 0 0 0-.013-2.958zM16.7 19.531a7.5 7.5 0 0 1-1.319-.434 1.878 1.878 0 0 1-.731-.551 1.432 1.432 0 0 1-.255-.89 1.83 1.83 0 0 1 .514-1.266 2.043 2.043 0 0 1 .749-.479 3.367 3.367 0 0 1 1.042-.2zm2.916 4.444a1.711 1.711 0 0 1-.956.768 3.749 3.749 0 0 1-.738.187v-3.9a5 5 0 0 1 .888.351 1.931 1.931 0 0 1 .736.627 1.831 1.831 0 0 1 .273 1.047 1.9 1.9 0 0 1-.2.92z" class="cls-1" transform="translate(-13.259 -13.428)"/>
                </g>
            </g>
            <g id="Group_7651" transform="translate(0 7.269)">
                <g id="Group_7650">
                    <path id="Path_8546" d="M31.275 26.9a13.317 13.317 0 0 0 .816-4.753c0-7.837-8.139-15.088-14.651-15.088S2.793 14.313 2.79 22.149a13.336 13.336 0 0 0 .817 4.751A4.447 4.447 0 1 0 9.9 33.12a17.432 17.432 0 0 0 7.544 1.67 17.428 17.428 0 0 0 7.544-1.67 4.447 4.447 0 1 0 6.287-6.22zm-2.819 6.665a3.215 3.215 0 0 1-2.52-1.213l-.606-.752-.873.42a16.658 16.658 0 0 1-14.032 0l-.873-.42-.607.757a3.225 3.225 0 1 1-4.565-4.509l.711-.583-.362-.846a12.19 12.19 0 0 1-.717-4.27c0-7.141 7.568-13.865 13.43-13.865s13.43 6.723 13.43 13.865a12.179 12.179 0 0 1-.718 4.271l-.362.846.711.583a3.222 3.222 0 0 1-2.045 5.717z" class="cls-1" transform="translate(-1.976 -7.062)"/>
                </g>
            </g>
            <g id="Group_7653" transform="translate(12.413 30.751)">
                <g id="Group_7652">
                    <path id="Path_8547" d="M20.111 30.3a.609.609 0 0 0-.764-.4 7.7 7.7 0 0 1-4.519 0 .612.612 0 0 0-.363 1.168 8.92 8.92 0 0 0 5.246 0 .611.611 0 0 0 .4-.768z" class="cls-1" transform="translate(-14.036 -29.874)"/>
                </g>
            </g>
            <g id="Group_7655" transform="translate(10.585)">
                <g id="Group_7654">
                    <path id="Path_8548" d="M21.41 0a1.409 1.409 0 0 0-.5.106l-2.252.868a4.4 4.4 0 0 1-1.519.241A4.385 4.385 0 0 1 15.62.974L13.369.106a1.413 1.413 0 0 0-.5-.106c-.506 0-.741.412-.534 1.077L13.4 4.488a2.362 2.362 0 0 0 2.113 1.557h3.256a2.361 2.361 0 0 0 2.111-1.557l1.063-3.411C22.151.412 21.918 0 21.41 0zm-1.694 4.123a1.158 1.158 0 0 1-.948.7h-3.256a1.158 1.158 0 0 1-.948-.7l-.8-2.553 1.413.545a5.611 5.611 0 0 0 1.958.323 5.612 5.612 0 0 0 1.965-.322l1.415-.545z" class="cls-1" transform="translate(-12.259)"/>
                </g>
            </g>
        </g>
    </g>
</svg>
