<svg xmlns="http://www.w3.org/2000/svg" width="57" height="57" viewBox="0 0 57 57">
    <defs>
        <clipPath id="clip-path">
            <path id="Rectangle_1736" fill="#b1b1b1" d="M0 0H57V57H0z"/>
        </clipPath>
        <style>
            .cls-4{fill:#ffcbbe}
        </style>
    </defs>
    <g id="Mask_Group_159" clip-path="url(#clip-path)">
        <g id="improvement" transform="translate(0 .009)">
            <g id="Group_7581">
                <g id="Group_7580">
                    <g id="Group_7578" transform="translate(0 31.777)">
                        <g id="Group_7577">
                            <g id="Group_7576">
                                <g id="Group_7575">
                                    <g id="Group_7574">
                                        <g id="Group_7573" transform="translate(4.687 3.111)">
                                            <g id="Group_7572">
                                                <path id="Path_8486" fill="#ffddce" d="M37.55 56.662l-.319-.263v-1.228l.331-.229.007-.9a4.689 4.689 0 0 0-4.009-4.179l-9.834-1.132c-2.269-.321-3.4-1.081-5.38-2.238a17.625 17.625 0 0 0-8.9-2.412H5.92v13.092l12.854 4.784a9.781 9.781 0 0 0 3.412.614h13.247a9.781 9.781 0 0 0 5.235-1.519l7.6-4.816a6.121 6.121 0 0 0 3.325-5.759z" transform="translate(-5.92 -44.081)"/>
                                                <path id="Path_8487" d="M22.186 67.5h13.247a9.781 9.781 0 0 0 5.235-1.519l16.586-10.51a2.911 2.911 0 0 0 .474-3.815c-.9-1.324-2.391-1.554-4.031-.779l-2.728 1.2a5.813 5.813 0 0 1-2.7 4.911l-7.6 4.816a9.781 9.781 0 0 1-5.235 1.519H22.186a9.781 9.781 0 0 1-3.412-.614L5.92 57.923V62.1l12.854 4.784a9.782 9.782 0 0 0 3.412.614z" class="cls-4" transform="translate(-5.92 -45.404)"/>
                                                <g id="Group_7571" transform="translate(30.442 7.262)">
                                                    <path id="Path_8488" fill="#f5dbcc" d="M44.374 53.254v.063l.042-.018-.041-.045z" transform="translate(-44.374 -53.254)"/>
                                                </g>
                                            </g>
                                        </g>
                                        <path id="Path_8489" fill="#407093" d="M7.453 62.517a1.689 1.689 0 0 1-1.689 1.689H1.689A1.689 1.689 0 0 1 0 62.517V41.839a1.689 1.689 0 0 1 1.689-1.689h4.075a1.689 1.689 0 0 1 1.689 1.689z" transform="translate(0 -40.151)"/>
                                    </g>
                                </g>
                            </g>
                        </g>
                    </g>
                    <g id="Group_7579" transform="translate(11.905)">
                        <path id="Path_8490" fill="#e28086" d="M41.118 16.7A16.993 16.993 0 0 0 29.554.594a2.993 2.993 0 0 0-1.62-.079 16.512 16.512 0 0 0-5.855 2.61l-3 2.717a16.6 16.6 0 0 0 8.857 27.034 2.991 2.991 0 0 0 1.618-.079A16.993 16.993 0 0 0 41.118 16.7z" transform="translate(-15.038 -.101)"/>
                        <path id="Path_8491" fill="#dd636e" d="M35.044.012a16.642 16.642 0 0 0-3.631.4 16.6 16.6 0 0 1 0 32.39A16.6 16.6 0 1 0 35.044.012z" transform="translate(-18.45 -.012)"/>
                        <path id="Path_8492" fill="#f4fbff" d="M39.918 20.988l.5-9.225a.421.421 0 0 0-.443-.443l-9.225.5a.421.421 0 0 0-.275.718l2.025 2.03a.421.421 0 0 1 0 .6l-6.92 6.919a.421.421 0 0 0 0 .6l3.471 3.471a.421.421 0 0 0 .6 0l6.924-6.924a.421.421 0 0 1 .6 0l2.025 2.029a.421.421 0 0 0 .718-.275z" transform="translate(-17.209 -2.368)"/>
                    </g>
                </g>
            </g>
            <path id="Path_8493" d="M39.889 57.146h-9.721a.835.835 0 1 0 0 1.67h9.721z" class="cls-4" transform="translate(-6.111 -11.915)"/>
        </g>
    </g>
</svg>
