<svg xmlns="http://www.w3.org/2000/svg" width="57" height="57" viewBox="0 0 57 57">
    <defs>
        <clipPath id="clip-path">
            <path id="Rectangle_1737" fill="#b1b1b1" d="M0 0H57V57H0z" transform="translate(2622 3622)"/>
        </clipPath>
        <style>
            .cls-4{fill:#95d6a4}.cls-6{fill:#e28086}.cls-7{fill:#dd636e}.cls-9{fill:#c6c1c8}.cls-10{fill:#818181}
        </style>
    </defs>
    <g id="Mask_Group_160" clip-path="url(#clip-path)" transform="translate(-2622 -3622)">
        <g id="hotel-service" transform="translate(2622 3627.675)">
            <path id="Path_8494" fill="#b3e59f" d="M42.893 51.024h18.094a1.15 1.15 0 0 0 1.15-1.15V33.3h-20.4v16.574a1.151 1.151 0 0 0 1.156 1.15z" transform="translate(-5.137 -9.773)"/>
            <path id="Path_8495" d="M61.539 33.3v17.724h1.885a1.15 1.15 0 0 0 1.15-1.15V33.3z" class="cls-4" transform="translate(-7.574 -9.773)"/>
            <path id="Path_8496" fill="#f9f6f9" d="M46.172 46.534V38.88a1.15 1.15 0 0 1 1.15-1.15h10.325a1.15 1.15 0 0 1 1.15 1.15v7.654a1.15 1.15 0 0 1-1.15 1.15H47.323a1.151 1.151 0 0 1-1.15-1.15z" transform="translate(-5.683 -10.319)"/>
            <path id="Path_8497" d="M41.742 39.421l6.121-6.121h-6.121z" class="cls-4" transform="translate(-5.137 -9.773)"/>
            <path id="Path_8498" d="M41.742 26v5.716h20.4V26a1.151 1.151 0 0 0-.646-1.034l-9.047-4.416a1.151 1.151 0 0 0-1.009 0l-9.047 4.416A1.151 1.151 0 0 0 41.742 26z" class="cls-6" transform="translate(-5.137 -8.19)"/>
            <path id="Path_8499" d="M61.539 24.273v7.916h3.035v-5.716a1.151 1.151 0 0 0-.646-1.034z" class="cls-7" transform="translate(-7.574 -8.662)"/>
            <path id="Path_8500" d="M41.742 26.021v5.716h6.121l4.909-4.909a2.428 2.428 0 0 0 .421-2.868l-1.81-3.36-8.995 4.39a1.151 1.151 0 0 0-.646 1.034z" class="cls-7" transform="translate(-5.137 -8.21)"/>
            <g id="Group_7598" transform="translate(0 17.587)">
                <path id="Path_8501" fill="#dfdde2" d="M8.442 51.265l.133-1.465a1.15 1.15 0 0 1 1.042-1.04l1.463-.133a1.151 1.151 0 0 0 .709-.332l1.042-1.042a1.15 1.15 0 0 0 .332-.709l.137-1.464a1.15 1.15 0 0 1 1.042-1.042l1.463-.133a1.151 1.151 0 0 0 .709-.332l11.548-11.552-5.494-5.494L.337 48.759a1.151 1.151 0 0 0-.268 1.2L1.1 52.8a1.151 1.151 0 0 0 .691.691l2.84 1.027a1.15 1.15 0 0 0 1.2-.268l2.279-2.276a1.15 1.15 0 0 0 .332-.709z" transform="translate(0 -26.527)"/>
                <path id="Path_8502" d="M28.253 32.021L16.7 43.573a1.156 1.156 0 0 1-.709.333l-1.463.132a1.15 1.15 0 0 0-1.041 1.042l-.133 1.462a1.146 1.146 0 0 1-.333.71l-1.041 1.043a1.154 1.154 0 0 1-.71.331l-1.463.133A1.151 1.151 0 0 0 8.766 49.8l-.133 1.463a1.149 1.149 0 0 1-.333.71l-2.278 2.279a1.149 1.149 0 0 1-1.2.269L1.96 53.488a1.166 1.166 0 0 1-.412-.268l1.272-1.264a1.215 1.215 0 0 1 1.269-.28l.064.023a1.216 1.216 0 0 0 1.271-.283l.521-.521a1.217 1.217 0 0 0 .35-.749l.23-2.526a1.214 1.214 0 0 1 1.1-1.1l2.692-.244A.757.757 0 0 0 11 45.59l.245-2.692a1.213 1.213 0 0 1 1.1-1.1l2.528-.23a1.205 1.205 0 0 0 .748-.351l8.342-8.341a.243.243 0 0 0-.058-.385l-.859-.462a.735.735 0 0 1-.3-.3l-1.819-3.378 1.827-1.827z" class="cls-9" transform="translate(-.191 -26.527)"/>
            </g>
            <g id="Group_7599" transform="translate(43.511 31.526)">
                <path id="Path_8503" d="M55.337 44.148h-4.856a.863.863 0 1 1 0-1.726h4.856a.863.863 0 1 1 0 1.726z" class="cls-6" transform="translate(-49.618 -42.422)"/>
            </g>
            <g id="Group_7600" transform="translate(15.782 19.723)">
                <path id="Path_8504" d="M18.86 39.107a.863.863 0 0 1-.61-1.473l8.419-8.419a.863.863 0 0 1 1.22 1.22l-8.419 8.419a.861.861 0 0 1-.61.253z" class="cls-10" transform="translate(-17.997 -28.962)"/>
            </g>
            <path id="Path_8505" d="M38.849 33.068l9.091-9.091a1.151 1.151 0 0 0 .2-1.359l-5.6-10.406-10.41-5.603a1.15 1.15 0 0 0-1.359.2L21.68 15.9a1.151 1.151 0 0 0-.2 1.359l5.44 10.1a1.15 1.15 0 0 0 .468.468l10.1 5.44a1.151 1.151 0 0 0 1.361-.199zm.081-13.816a2.428 2.428 0 1 1 0-3.434 2.428 2.428 0 0 1 0 3.433z" class="cls-10" transform="translate(-2.627 -6.471)"/>
            <path id="Path_8506" fill="#595959" d="M46.878 21.015a16.411 16.411 0 0 1-20.937 5.265l1.545 2.869a1.151 1.151 0 0 0 .468.468l10.1 5.44a1.15 1.15 0 0 0 1.359-.2l9.091-9.091a1.151 1.151 0 0 0 .2-1.359z" transform="translate(-3.193 -8.261)"/>
            <g id="Group_7601" transform="translate(25.826 12.604)">
                <path id="Path_8507" d="M35.808 28.064a.861.861 0 0 1-.61-.253L29.7 22.317a.863.863 0 0 1 1.22-1.22l5.494 5.494a.863.863 0 0 1-.61 1.473z" class="cls-6" transform="translate(-29.451 -20.844)"/>
            </g>
            <path id="Path_8508" d="M48.291 10.839a1.52 1.52 0 0 1 1.417-.371 1.63 1.63 0 0 1 1.205 1.594v7.148a.049.049 0 0 0 .066.045l.409-.193a1.075 1.075 0 0 1 .8.012l.383.18a.049.049 0 0 0 .066-.045v-7.216a3.291 3.291 0 0 0-5.514-2.427l-6.431 5.889a.863.863 0 0 0 1.166 1.273z" class="cls-9" transform="translate(-4.974 -6.745)"/>
        </g>
    </g>
</svg>
