<svg xmlns="http://www.w3.org/2000/svg" width="40" height="40" viewBox="0 0 40 40">
    <defs>
        <clipPath id="clip-path">
            <path id="Rectangle_1358" fill="#e6e6e6" d="M0 0H40V40H0z" transform="translate(-1266.422 795.578)"/>
        </clipPath>
        <style>
            .cls-3{fill:#000}
        </style>
    </defs>
    <g id="Mask_Group_102" clip-path="url(#clip-path)" transform="translate(1266.422 -795.578)">
        <g id="user" transform="translate(-1262.735 796)">
            <path id="Path_7196" d="M17.651 18.984a9.185 9.185 0 0 0 6.712-2.784 9.185 9.185 0 0 0 2.781-6.711 9.186 9.186 0 0 0-2.781-6.709A9.186 9.186 0 0 0 17.651 0a9.184 9.184 0 0 0-6.711 2.781 9.185 9.185 0 0 0-2.781 6.711A9.185 9.185 0 0 0 10.94 16.2a9.188 9.188 0 0 0 6.711 2.784zm-5.078-14.57a6.861 6.861 0 0 1 5.078-2.1 6.862 6.862 0 0 1 5.078 2.1 6.862 6.862 0 0 1 2.1 5.078 6.862 6.862 0 0 1-2.1 5.078 6.861 6.861 0 0 1-5.078 2.1 6.863 6.863 0 0 1-5.078-2.1 6.861 6.861 0 0 1-2.1-5.078 6.862 6.862 0 0 1 2.1-5.078zm0 0" class="cls-3" transform="translate(-1.46)"/>
            <path id="Path_7197" d="M32.8 34.454a23.445 23.445 0 0 0-.319-2.49 19.619 19.619 0 0 0-.612-2.5 12.368 12.368 0 0 0-1.029-2.335 8.8 8.8 0 0 0-1.553-2.029 6.843 6.843 0 0 0-2.229-1.4 7.705 7.705 0 0 0-2.846-.515 2.889 2.889 0 0 0-1.543.654c-.462.3-1 .65-1.607 1.036a9.209 9.209 0 0 1-2.079.916 8.075 8.075 0 0 1-5.087 0 9.181 9.181 0 0 1-2.078-.916c-.6-.382-1.139-.731-1.609-1.037a2.886 2.886 0 0 0-1.542-.654 7.7 7.7 0 0 0-2.846.516 6.837 6.837 0 0 0-2.23 1.4 8.8 8.8 0 0 0-1.551 2.022 12.391 12.391 0 0 0-1.03 2.338 19.666 19.666 0 0 0-.612 2.5 23.285 23.285 0 0 0-.319 2.491C.026 35.207 0 35.99 0 36.782a6.544 6.544 0 0 0 1.944 4.951 7 7 0 0 0 5.008 1.827h18.976a7 7 0 0 0 5.008-1.827 6.542 6.542 0 0 0 1.944-4.951c0-.794-.027-1.577-.08-2.328zm-3.457 5.606a4.71 4.71 0 0 1-3.416 1.19H6.952a4.71 4.71 0 0 1-3.416-1.19 4.273 4.273 0 0 1-1.226-3.278c0-.738.024-1.468.073-2.168a21 21 0 0 1 .289-2.243 17.345 17.345 0 0 1 .539-2.207 10.087 10.087 0 0 1 .838-1.9 6.526 6.526 0 0 1 1.14-1.495 4.539 4.539 0 0 1 1.483-.922A5.314 5.314 0 0 1 8.49 25.5c.081.043.225.125.458.277.475.309 1.022.662 1.627 1.049a11.442 11.442 0 0 0 2.61 1.166 10.382 10.382 0 0 0 6.507 0 11.455 11.455 0 0 0 2.608-1.169c.619-.4 1.151-.738 1.626-1.048.233-.152.377-.234.458-.277a5.318 5.318 0 0 1 1.819.351 4.546 4.546 0 0 1 1.483.922 6.508 6.508 0 0 1 1.14 1.495 10.054 10.054 0 0 1 .838 1.9 17.305 17.305 0 0 1 .539 2.207 21.181 21.181 0 0 1 .289 2.243c.049.7.074 1.426.074 2.167a4.273 4.273 0 0 1-1.227 3.278zm0 0" class="cls-3" transform="translate(0 -4.15)"/>
        </g>
    </g>
</svg>
