<svg xmlns="http://www.w3.org/2000/svg" width="57" height="57" viewBox="0 0 57 57">
    <defs>
        <clipPath id="clip-path">
            <path id="Rectangle_1734" fill="#b1b1b1" d="M0 0H57V57H0z"/>
        </clipPath>
        <style>
            .cls-3{fill:#ffd064}.cls-7{fill:#ffddce}.cls-8{fill:#ffcbbe}
        </style>
    </defs>
    <g id="Mask_Group_157" clip-path="url(#clip-path)">
        <g id="money_1_" transform="translate(.967 .079)">
            <g id="Group_7542">
                <g id="Group_7524" transform="translate(11.363)">
                    <g id="Group_7519" transform="translate(2.248 5.216)">
                        <g id="Group_7517">
                            <path id="Path_8462" d="M28.4 11.49a.858.858 0 0 1-.693-.35 4.651 4.651 0 0 0-4.359-2.046 8.631 8.631 0 0 1-5.639-1.281.859.859 0 0 1 .925-1.448 6.928 6.928 0 0 0 4.532 1.02 6.391 6.391 0 0 1 5.934 2.736.859.859 0 0 1-.7 1.369z" class="cls-3" transform="translate(-17.317 -6.23)"/>
                        </g>
                        <g id="Group_7518" transform="translate(1.235 4.651)">
                            <path id="Path_8463" d="M19.65 16.956a.859.859 0 0 1-.731-1.309 8.46 8.46 0 0 1 5.836-3.566 15.578 15.578 0 0 1 3.713-.28.859.859 0 0 1-.117 1.714c-.06 0-5.893-.35-7.968 3.031a.858.858 0 0 1-.733.41z" class="cls-3" transform="translate(-18.791 -11.784)"/>
                        </g>
                    </g>
                    <g id="Group_7523">
                        <g id="Group_7522">
                            <path id="Path_8464" fill="#eabc6b" d="M31.923 47.959c14.11 0 21.911-20.7-.37-36.681a2.091 2.091 0 0 1-.876-1.72 2.8 2.8 0 0 1 .508-1.573A40.66 40.66 0 0 0 34.63 1.9a.707.707 0 0 0-.67-1.02C32.622.876 32.622 0 31.284 0s-1.338.876-2.677.876c-1.14 0-1.607-.981-2.163-.268-1.617 2.081 3.922 9.4 3.922 9.4C5.9 26.09 13.791 47.959 28.234 47.959h3.689z" transform="translate(-14.632)"/>
                            <g id="Group_7520" transform="translate(14.773)">
                                <path id="Path_8465" fill="#e8ae4d" d="M40.341 10.008s5.621-7.3 4-9.388c-.551-.713-1.021.255-2.16.255C40.847.876 40.847 0 39.508 0s-1.338.876-2.677.876c-.066 0-.126 0-.186-.008-.538 2.305-2.961 5.9-4.348 7.819.546.8.939 1.321.939 1.321q-.489.322-.96.647c23.372 16.064 15.551 37.3 1.258 37.3h9.025c14.486.004 22.325-21.812-2.218-37.947z" transform="translate(-32.276)"/>
                            </g>
                            <g id="Group_7521" transform="translate(12.627 8.499)">
                                <path id="Path_8466" fill="#ffe07d" d="M40.969 14.255a19.554 19.554 0 0 1-9.76 0 2.084 2.084 0 0 1-1.372-2.728l.014-.039a1.923 1.923 0 0 1 2.27-1.282 15.889 15.889 0 0 0 7.938 0 1.923 1.923 0 0 1 2.27 1.282l.014.039a2.084 2.084 0 0 1-1.372 2.728z" transform="translate(-29.713 -10.15)"/>
                            </g>
                        </g>
                    </g>
                </g>
                <g id="Group_7541" transform="translate(0 32.545)">
                    <g id="Group_7540">
                        <g id="Group_7539">
                            <g id="Group_7538">
                                <g id="Group_7537">
                                    <g id="Group_7536">
                                        <g id="Group_7535">
                                            <g id="Group_7534">
                                                <g id="Group_7533">
                                                    <g id="Group_7532">
                                                        <g id="Group_7531" transform="translate(4.536 3.011)">
                                                            <g id="Group_7530">
                                                                <g id="Group_7525">
                                                                    <path id="Path_8467" d="M6.478 58.621l12.439 4.63a9.465 9.465 0 0 0 3.3.595h12.821a9.465 9.465 0 0 0 5.066-1.47L56.155 52.2a2.817 2.817 0 0 0 .459-3.691c-.872-1.281-2.314-1.5-3.9-.753l-15.628 6.885.018-2.535a4.538 4.538 0 0 0-3.88-4.044l-9.516-1.1c-2.2-.311-3.292-1.046-5.206-2.166a17.056 17.056 0 0 0-8.612-2.33H6.478z" class="cls-7" transform="translate(-6.478 -42.466)"/>
                                                                </g>
                                                                <path id="Path_8468" d="M18.161 60.784a9.951 9.951 0 0 0 3.471.625h13.477a9.95 9.95 0 0 0 4.142-.9l9.423-5.971a2.91 2.91 0 0 0 .891-4.14s-.287-.492-.582-.992l-11.9 5.238.018-2.535a4.538 4.538 0 0 0-3.88-4.044l-9.516-1.1c-2.2-.311-3.292-1.046-5.206-2.166a17.056 17.056 0 0 0-8.609-2.333H6.478v13.969z" class="cls-7" transform="translate(-6.478 -42.466)"/>
                                                                <path id="Path_8469" d="M56.613 49.459c-.872-1.281-2.314-1.5-3.9-.753l-4.3 1.893.374.592a2.817 2.817 0 0 1-.459 3.691l-9.352 5.926a9.464 9.464 0 0 1-3.94.86H22.219a9.465 9.465 0 0 1-3.3-.595l-12.441-4.63v3.123L18.917 64.2a9.465 9.465 0 0 0 3.3.595h12.821a9.465 9.465 0 0 0 5.066-1.47L56.155 53.15a2.817 2.817 0 0 0 .458-3.691z" class="cls-8" transform="translate(-6.478 -43.411)"/>
                                                                <g id="Group_7526" transform="translate(29.459 7.028)">
                                                                    <path id="Path_8470" fill="#f5dbcc" d="M41.662 50.859v.061l.04-.018z" transform="translate(-41.662 -50.859)"/>
                                                                </g>
                                                                <g id="Group_7529" transform="translate(20.032 10.455)">
                                                                    <g id="Group_7528">
                                                                        <g id="Group_7527">
                                                                            <path id="Path_8471" d="M40.979 56.671h-9.717a.859.859 0 0 1 0-1.718h9.729z" class="cls-8" transform="translate(-30.403 -54.952)"/>
                                                                        </g>
                                                                    </g>
                                                                </g>
                                                            </g>
                                                        </g>
                                                        <path id="Path_8472" fill="#407093" d="M8.273 60.513a1.634 1.634 0 0 1-1.634 1.634H2.7a1.634 1.634 0 0 1-1.634-1.634V40.5A1.634 1.634 0 0 1 2.7 38.87h3.939a1.634 1.634 0 0 1 1.634 1.63z" transform="translate(-1.061 -38.87)"/>
                                                    </g>
                                                </g>
                                            </g>
                                        </g>
                                    </g>
                                </g>
                            </g>
                        </g>
                    </g>
                </g>
            </g>
            <path id="Path_8473" fill="#fff" d="M38.6 29.915c-.393-.139-.756-.272-1.09-.4v-5.478a3.531 3.531 0 0 1 1.671.734.859.859 0 0 0 1.16-1.267 5.32 5.32 0 0 0-2.831-1.2V21.08a.859.859 0 0 0-1.718 0v1.291a6.357 6.357 0 0 0-.637.156 4.154 4.154 0 0 0-2.843 3.261 3.634 3.634 0 0 0 1.181 3.582 10.41 10.41 0 0 0 2.3 1.3v6.795a4.56 4.56 0 0 1-2.672-.927.859.859 0 1 0-.941 1.438 6.292 6.292 0 0 0 3.613 1.206v1.364a.859.859 0 0 0 1.718 0v-1.425a5.033 5.033 0 0 0 4.125-4.165 4.406 4.406 0 0 0-3.036-5.041zm-4.047-1.9A1.937 1.937 0 0 1 34 26.106a2.458 2.458 0 0 1 1.65-1.934l.142-.039v4.641a7.241 7.241 0 0 1-1.237-.757zm5.389 6.654a3.346 3.346 0 0 1-2.431 2.693v-6.013c.167.061.338.123.517.186a2.7 2.7 0 0 1 1.915 3.136z" transform="translate(-6.061 -3.29)"/>
        </g>
    </g>
</svg>
